<svg width="24" height="25" viewBox="0 0 24 25" fill="none" xmlns="http://www.w3.org/2000/svg">
<path fill-rule="evenodd" clip-rule="evenodd" d="M11.8571 21.754L12.5783 20.9415C13.3966 20.0043 14.1326 19.1152 14.7874 18.2695L15.328 17.5563C17.5851 14.5152 18.7143 12.1015 18.7143 10.3175C18.7143 6.50946 15.6446 3.42261 11.8571 3.42261C8.06971 3.42261 5 6.50946 5 10.3175C5 12.1015 6.12914 14.5152 8.38629 17.5563L8.92686 18.2695C9.86107 19.4665 10.8385 20.628 11.8571 21.754Z" stroke="black" stroke-linecap="round" stroke-linejoin="round"/>
<path d="M11.8571 13.1369C13.4351 13.1369 14.7143 11.8577 14.7143 10.2798C14.7143 8.70179 13.4351 7.42261 11.8571 7.42261C10.2792 7.42261 9 8.70179 9 10.2798C9 11.8577 10.2792 13.1369 11.8571 13.1369Z" stroke="black" stroke-linecap="round" stroke-linejoin="round"/>
</svg>
