<svg width="24" height="25" viewBox="0 0 24 25" fill="none" xmlns="http://www.w3.org/2000/svg">
<path d="M4.615 19.5889C4.155 19.5889 3.771 19.4349 3.463 19.1269C3.15433 18.8182 3 18.4339 3 17.9739V7.20387C3 6.74387 3.15433 6.35987 3.463 6.05187C3.771 5.7432 4.155 5.58887 4.615 5.58887H19.385C19.845 5.58887 20.229 5.7432 20.537 6.05187C20.8457 6.35987 21 6.74387 21 7.20387V17.9739C21 18.4339 20.846 18.8179 20.538 19.1259C20.2293 19.4345 19.845 19.5889 19.385 19.5889H4.615ZM12 12.7039L4 7.47387V17.9739C4 18.1532 4.05767 18.3005 4.173 18.4159C4.28833 18.5312 4.43567 18.5889 4.615 18.5889H19.385C19.5643 18.5889 19.7117 18.5312 19.827 18.4159C19.9423 18.3005 20 18.1532 20 17.9739V7.47387L12 12.7039ZM12 11.5889L19.692 6.58887H4.308L12 11.5889ZM4 7.47387V6.58887V17.9739C4 18.1532 4.05767 18.3005 4.173 18.4159C4.28833 18.5312 4.43567 18.5889 4.615 18.5889H4V7.47387Z" fill="black"/>
</svg>
