<svg width="24" height="25" viewBox="0 0 24 25" fill="none" xmlns="http://www.w3.org/2000/svg">
<path d="M20.8411 16.1615L16.0628 14.0233C15.8776 13.9431 15.6753 13.9104 15.4742 13.9281C15.2732 13.9457 15.0797 14.0132 14.9113 14.1245C14.8978 14.133 14.8849 14.1425 14.8728 14.1528L12.3632 16.292C12.3074 16.3261 12.244 16.3458 12.1787 16.3495C12.1134 16.3532 12.0482 16.3408 11.9888 16.3133C10.3455 15.5199 8.64444 13.832 7.8511 12.2079C7.82303 12.149 7.81001 12.0841 7.81319 12.0189C7.81637 11.9538 7.83565 11.8904 7.86931 11.8345L10.0146 9.28347C10.0247 9.27133 10.0338 9.25818 10.0429 9.24502C10.1538 9.07684 10.2211 8.88372 10.2388 8.68304C10.2565 8.48237 10.2239 8.28045 10.1441 8.09548L8.00187 3.32531C7.89845 3.08371 7.71944 2.88219 7.49173 2.75099C7.26401 2.6198 6.99988 2.56603 6.739 2.59774C5.46557 2.76564 4.2968 3.39135 3.451 4.35801C2.6052 5.32467 2.1402 6.56616 2.14286 7.8506C2.14286 15.6626 8.49771 22.0174 16.3097 22.0174C17.5942 22.0201 18.8357 21.5551 19.8023 20.7093C20.769 19.8635 21.3947 18.6947 21.5626 17.4213C21.5941 17.1616 21.5409 16.8987 21.4109 16.6717C21.2809 16.4447 21.081 16.2657 20.8411 16.1615ZM20.7622 17.3201C20.6193 18.3986 20.0885 19.388 19.269 20.1036C18.4496 20.8191 17.3976 21.2117 16.3097 21.2079C8.94498 21.2079 2.9524 15.2153 2.9524 7.8506C2.94863 6.76274 3.34121 5.71074 4.05673 4.8913C4.77226 4.07185 5.76174 3.54106 6.84019 3.39817C6.85637 3.39717 6.87259 3.39717 6.88876 3.39817C6.96862 3.39885 7.04648 3.42314 7.11257 3.46797C7.17865 3.51281 7.22999 3.57619 7.26014 3.65014L9.3963 8.42031C9.42122 8.47861 9.4321 8.54195 9.42806 8.60523C9.42402 8.6685 9.40516 8.72995 9.37302 8.7846L7.22877 11.3346C7.21865 11.3478 7.20853 11.3599 7.19942 11.3741C7.08519 11.5488 7.01791 11.75 7.00408 11.9582C6.99026 12.1665 7.03035 12.3748 7.12049 12.5631C7.99985 14.3633 9.81321 16.1635 11.6336 17.0428C11.8232 17.1324 12.0327 17.1714 12.2418 17.1559C12.4508 17.1405 12.6524 17.0712 12.8267 16.9548L12.8641 16.9265L15.3767 14.7893C15.4305 14.7565 15.4913 14.7369 15.5541 14.7321C15.6169 14.7274 15.6799 14.7376 15.738 14.762L20.5153 16.9032C20.5959 16.9368 20.6635 16.9955 20.708 17.0706C20.7525 17.1458 20.7715 17.2333 20.7622 17.3201Z" fill="black" stroke="black" stroke-width="0.2"/>
</svg>
