<svg width="16" height="16" viewBox="0 0 16 16" fill="none" xmlns="http://www.w3.org/2000/svg">
<g clip-path="url(#clip0_542_298)">
<path d="M12.25 8.08134L7.12135 13.21C6.55874 13.7726 5.79567 14.0887 5.00002 14.0887C4.20436 14.0887 3.4413 13.7726 2.87869 13.21C2.31607 12.6474 2 11.8843 2 11.0887C2 10.293 2.31607 9.52995 2.87869 8.96734L10.172 1.674C10.3578 1.48831 10.5783 1.34104 10.821 1.24057C11.0637 1.14011 11.3238 1.08844 11.5865 1.0885C11.8492 1.08856 12.1092 1.14036 12.3519 1.24094C12.5945 1.34151 12.815 1.48889 13.0007 1.67467C13.1864 1.86045 13.3337 2.08098 13.4341 2.32367C13.5346 2.56637 13.5862 2.82648 13.5862 3.08914C13.5861 3.35181 13.5343 3.61189 13.4338 3.85454C13.3332 4.09719 13.1858 4.31765 13 4.50334L5.70135 11.802C5.51201 11.9835 5.25893 12.0827 4.99665 12.0794C4.73437 12.0761 4.4839 11.9698 4.29922 11.7836C4.11453 11.5973 4.01042 11.346 4.00933 11.0837C4.00823 10.8214 4.11023 10.5691 4.29335 10.3813L9.50002 5.17467M5.70735 11.7953L5.70068 11.802" stroke="black" stroke-linecap="round" stroke-linejoin="round"/>
</g>
<defs>
<clipPath id="clip0_542_298">
<rect width="15.5862" height="15.0002" fill="white" transform="translate(0 0.088501)"/>
</clipPath>
</defs>
</svg>
