<svg width="20" height="12" viewBox="0 0 20 12" fill="none" xmlns="http://www.w3.org/2000/svg">
<path d="M13.3333 0.166626C13.3333 0.784959 13.9442 1.70829 14.5625 2.48329C15.3575 3.48329 16.3075 4.35579 17.3967 5.02163C18.2133 5.52079 19.2033 5.99996 20 5.99996M20 5.99996C19.2033 5.99996 18.2125 6.47913 17.3967 6.97829C16.3075 7.64496 15.3575 8.51746 14.5625 9.51579C13.9442 10.2916 13.3333 11.2166 13.3333 11.8333M20 5.99996H0H20Z" fill="black" fill-opacity="0.7"/>
<path d="M13.3333 0.166626C13.3333 0.784959 13.9442 1.70829 14.5625 2.48329C15.3575 3.48329 16.3075 4.35579 17.3967 5.02163C18.2133 5.52079 19.2033 5.99996 20 5.99996M20 5.99996C19.2033 5.99996 18.2125 6.47913 17.3967 6.97829C16.3075 7.64496 15.3575 8.51746 14.5625 9.51579C13.9442 10.2916 13.3333 11.2166 13.3333 11.8333M20 5.99996H0" stroke="black" stroke-opacity="0.7"/>
</svg>
