<svg width="54" height="53" viewBox="0 0 54 53" fill="none" xmlns="http://www.w3.org/2000/svg">
<path d="M31.875 10.7761H29.4375V8.3386C29.4375 8.12311 29.3519 7.91645 29.1995 7.76408C29.0472 7.6117 28.8405 7.5261 28.625 7.5261H25.375C25.1595 7.5261 24.9528 7.6117 24.8005 7.76408C24.6481 7.91645 24.5625 8.12311 24.5625 8.3386V10.7761H22.125C21.9095 10.7761 21.7028 10.8617 21.5505 11.0141C21.3981 11.1665 21.3125 11.3731 21.3125 11.5886V14.8386C21.3125 15.0541 21.3981 15.2608 21.5505 15.4131C21.7028 15.5655 21.9095 15.6511 22.125 15.6511H24.5625V18.0886C24.5625 18.3041 24.6481 18.5108 24.8005 18.6631C24.9528 18.8155 25.1595 18.9011 25.375 18.9011H28.625C28.8405 18.9011 29.0472 18.8155 29.1995 18.6631C29.3519 18.5108 29.4375 18.3041 29.4375 18.0886V15.6511H31.875C32.0905 15.6511 32.2972 15.5655 32.4495 15.4131C32.6019 15.2608 32.6875 15.0541 32.6875 14.8386V11.5886C32.6875 11.3731 32.6019 11.1665 32.4495 11.0141C32.2972 10.8617 32.0905 10.7761 31.875 10.7761ZM31.0625 14.0261H28.625C28.4095 14.0261 28.2028 14.1117 28.0505 14.2641C27.8981 14.4165 27.8125 14.6231 27.8125 14.8386V17.2761H26.1875V14.8386C26.1875 14.6231 26.1019 14.4165 25.9495 14.2641C25.7972 14.1117 25.5905 14.0261 25.375 14.0261H22.9375V12.4011H25.375C25.5905 12.4011 25.7972 12.3155 25.9495 12.1631C26.1019 12.0108 26.1875 11.8041 26.1875 11.5886V9.1511H27.8125V11.5886C27.8125 11.8041 27.8981 12.0108 28.0505 12.1631C28.2028 12.3155 28.4095 12.4011 28.625 12.4011H31.0625V14.0261Z" fill="#FD8127"/>
<path d="M49.5306 15.1311C49.5471 14.9882 49.5552 14.8444 49.555 14.7005C49.5511 13.9557 49.2927 13.2347 48.8228 12.6569C48.3529 12.0791 47.6996 11.6792 46.9713 11.5236C46.1474 11.3668 45.2947 11.5288 44.5858 11.9768C43.8768 12.4248 43.3645 13.1253 43.1525 13.9367L39.5775 24.223C39.5245 24.244 39.473 24.2684 39.4231 24.2961L32.2406 28.5049C31.1416 29.1504 30.2299 30.0716 29.5958 31.1774C28.9617 32.2831 28.6271 33.5352 28.625 34.8099V42.4636C28.4095 42.4636 28.2028 42.5492 28.0505 42.7016C27.8981 42.8539 27.8125 43.0606 27.8125 43.2761V49.7761C27.8125 49.9916 27.8981 50.1982 28.0505 50.3506C28.2028 50.503 28.4095 50.5886 28.625 50.5886H40C40.2155 50.5886 40.4222 50.503 40.5745 50.3506C40.7269 50.1982 40.8125 49.9916 40.8125 49.7761V43.2761C40.8125 43.0606 40.7269 42.8539 40.5745 42.7016C40.4222 42.5492 40.2155 42.4636 40 42.4636V40.6761C40.0015 40.3329 40.0746 39.9938 40.2145 39.6805C40.3543 39.3671 40.558 39.0863 40.8125 38.8561L46.305 33.973C46.9058 33.4473 47.3358 32.7541 47.54 31.9823L51.0662 18.7955C51.1415 18.5201 51.1798 18.2359 51.18 17.9505C51.1768 17.3771 51.0227 16.8147 50.7332 16.3197C50.4436 15.8248 50.0289 15.4149 49.5306 15.1311ZM44.7044 14.4161C44.8041 13.9959 45.0585 13.6288 45.4169 13.3878C45.7753 13.1469 46.2114 13.0499 46.6381 13.1161C47.0023 13.1924 47.3293 13.3913 47.5644 13.6797C47.7996 13.9681 47.9286 14.3284 47.93 14.7005V14.7167C47.2042 14.7302 46.5027 14.9804 45.9322 15.4291C45.3617 15.8779 44.9534 16.5008 44.7694 17.203L42.5025 24.1986C42.1593 24.0358 41.7913 23.9315 41.4138 23.8899L44.7044 14.4161ZM39.1875 48.9636H29.4375V44.0886H39.1875V48.9636ZM49.4981 18.373L45.9638 31.568C45.8415 32.0265 45.5872 32.439 45.2325 32.7542L39.7319 37.6374C39.3062 38.0212 38.9656 38.4898 38.7319 39.0132C38.4983 39.5365 38.3767 40.103 38.375 40.6761V42.4636H30.25V34.8099C30.254 33.8185 30.5152 32.8452 31.0079 31.9851C31.5007 31.1249 32.2082 30.4073 33.0612 29.9024L40.2356 25.7017C40.4206 25.5939 40.6251 25.5238 40.8372 25.4953C41.0494 25.4668 41.2652 25.4804 41.472 25.5356C41.6789 25.5907 41.8728 25.6861 42.0427 25.8164C42.2126 25.9467 42.355 26.1093 42.4619 26.2949C42.6729 26.6703 42.7311 27.1126 42.6244 27.5299C42.5679 27.7359 42.4714 27.9288 42.3404 28.0975C42.2093 28.2661 42.0463 28.4074 41.8606 28.513L37.205 31.2024C37.0281 31.3148 36.9016 31.4912 36.8517 31.6947C36.8019 31.8983 36.8326 32.1132 36.9374 32.2946C37.0423 32.4761 37.2132 32.61 37.4145 32.6684C37.6158 32.7267 37.8318 32.7051 38.0175 32.608L42.6731 29.9186C43.0453 29.7075 43.3714 29.424 43.6323 29.0849C43.8932 28.7459 44.0837 28.358 44.1925 27.9442C44.4137 27.1129 44.2968 26.2278 43.8675 25.4824L43.8188 25.4092L46.3294 17.6661C46.4291 17.2459 46.6835 16.8788 47.0419 16.6378C47.4003 16.3969 47.8364 16.2999 48.2631 16.3661C48.6273 16.4424 48.9543 16.6413 49.1894 16.9297C49.4246 17.2181 49.5536 17.5784 49.555 17.9505C49.5577 18.0934 49.5386 18.2359 49.4981 18.373Z" fill="#FD8127"/>
<path d="M25.375 42.4636V34.8099C25.3729 33.5352 25.0383 32.2831 24.4042 31.1774C23.7701 30.0716 22.8585 29.1505 21.7594 28.5049L14.5769 24.288C14.5281 24.2636 14.4713 24.2474 14.4225 24.223L10.8719 13.9936C10.6655 13.1704 10.1532 12.4567 9.43927 11.9978C8.72531 11.539 7.86333 11.3694 7.02876 11.5236C6.30043 11.6792 5.64715 12.0791 5.17722 12.6569C4.7073 13.2347 4.44895 13.9557 4.44501 14.7005C4.4448 14.8444 4.45293 14.9882 4.46938 15.1311C3.97113 15.4149 3.55638 15.8248 3.26684 16.3197C2.97731 16.8147 2.8232 17.3771 2.82001 17.9505C2.82159 18.2353 2.85704 18.519 2.92563 18.7955L6.46001 31.9742C6.66198 32.7492 7.09227 33.4456 7.69501 33.973L13.1794 38.8561C13.4364 39.0848 13.6423 39.365 13.7837 39.6786C13.9251 39.9922 13.9988 40.3321 14 40.6761V42.4636C13.7845 42.4636 13.5779 42.5492 13.4255 42.7016C13.2731 42.854 13.1875 43.0606 13.1875 43.2761V49.7761C13.1875 49.9916 13.2731 50.1983 13.4255 50.3506C13.5779 50.503 13.7845 50.5886 14 50.5886H25.375C25.5905 50.5886 25.7972 50.503 25.9495 50.3506C26.1019 50.1983 26.1875 49.9916 26.1875 49.7761V43.2761C26.1875 43.0606 26.1019 42.854 25.9495 42.7016C25.7972 42.5492 25.5905 42.4636 25.375 42.4636ZM6.07001 14.7005C6.07101 14.3295 6.1989 13.9701 6.43243 13.6819C6.66596 13.3936 6.99108 13.194 7.35376 13.1161C7.79223 13.0525 8.23856 13.1569 8.60322 13.4086C8.96789 13.6602 9.22393 14.0405 9.32001 14.473L12.5863 23.8899C12.2087 23.9315 11.8407 24.0358 11.4975 24.1986L9.24688 17.2436C9.06372 16.5345 8.6546 15.9043 8.08141 15.4484C7.50823 14.9925 6.80215 14.7356 6.07001 14.7167V14.7005ZM14.26 37.6374L8.76751 32.7542C8.41086 32.4373 8.15636 32.0216 8.03626 31.5599L4.49376 18.373C4.46012 18.2347 4.44375 18.0928 4.44501 17.9505C4.44601 17.5795 4.5739 17.2201 4.80743 16.9319C5.04096 16.6436 5.36608 16.444 5.72876 16.3661C6.16415 16.3008 6.60813 16.4027 6.97141 16.6514C7.33469 16.9001 7.59032 17.2772 7.68688 17.7067L10.1813 25.4092L10.1325 25.4824C9.70318 26.2278 9.58634 27.1129 9.80751 27.9442C9.91629 28.358 10.1068 28.7459 10.3677 29.0849C10.6286 29.424 10.9548 29.7075 11.3269 29.9186L15.9825 32.608C16.1682 32.7051 16.3842 32.7267 16.5855 32.6684C16.7868 32.61 16.9577 32.4761 17.0626 32.2946C17.1674 32.1132 17.1981 31.8983 17.1483 31.6947C17.0984 31.4912 16.9719 31.3148 16.795 31.2024L12.1394 28.513C11.9537 28.4074 11.7907 28.2662 11.6596 28.0975C11.5286 27.9288 11.4321 27.7359 11.3756 27.5299C11.2689 27.1126 11.3271 26.6703 11.5381 26.2949C11.6443 26.1097 11.7859 25.9473 11.9548 25.8169C12.1237 25.6865 12.3167 25.5907 12.5227 25.5348C12.7286 25.479 12.9436 25.4643 13.1553 25.4915C13.3669 25.5188 13.5711 25.5874 13.7563 25.6936L20.9388 29.9024C21.7918 30.4073 22.4993 31.1249 22.9921 31.9851C23.4848 32.8452 23.746 33.8186 23.75 34.8099V42.4636H15.625V40.6761C15.6236 40.1021 15.5014 39.5349 15.2662 39.0113C15.031 38.4878 14.6882 38.0196 14.26 37.6374ZM24.5625 48.9636H14.8125V44.0886H24.5625V48.9636Z" fill="#FD8127"/>
<path d="M38.4944 4.38335C37.7402 3.62776 36.8443 3.02832 35.8581 2.61936C34.8719 2.21039 33.8147 1.99992 32.747 2C31.6794 2.00008 30.6223 2.21069 29.6361 2.6198C28.65 3.0289 27.7542 3.62846 27 4.38416C26.2459 3.62844 25.3501 3.02888 24.364 2.61979C23.3779 2.21071 22.3208 2.00014 21.2532 2.00014C20.1856 2.00014 19.1285 2.21071 18.1423 2.61979C17.1562 3.02888 16.2605 3.62844 15.5064 4.38416C13.9856 5.90815 13.1316 7.97317 13.1316 10.1261C13.1316 12.279 13.9856 14.344 15.5064 15.868L26.4264 26.788C26.5787 26.9404 26.7854 27.0259 27.0008 27.0259C27.2163 27.0259 27.4229 26.9404 27.5752 26.788L38.4952 15.868C40.0159 14.3438 40.8698 12.2786 40.8697 10.1255C40.8695 7.97246 40.0153 5.90737 38.4944 4.38335ZM27 25.0647L16.6544 14.7192C15.7462 13.8097 15.1279 12.6513 14.8779 11.3905C14.6279 10.1297 14.7573 8.82303 15.2497 7.63575C15.7422 6.44847 16.5756 5.43385 17.6446 4.72016C18.7136 4.00646 19.9703 3.62573 21.2556 3.6261C22.1095 3.62317 22.9553 3.79028 23.7439 4.11768C24.5325 4.44508 25.248 4.92622 25.8487 5.53304L26.4256 6.10991C26.5779 6.26223 26.7845 6.3478 27 6.3478C27.2154 6.3478 27.4221 6.26223 27.5744 6.10991L28.1529 5.53141C28.7561 4.92712 29.4726 4.4477 30.2613 4.1206C31.05 3.7935 31.8954 3.62513 32.7492 3.62513C33.6031 3.62513 34.4485 3.7935 35.2372 4.1206C36.0259 4.4477 36.7424 4.92712 37.3456 5.53141C38.5626 6.75015 39.2462 8.4021 39.2462 10.1245C39.2462 11.8469 38.5626 13.4988 37.3456 14.7175L27 25.0647Z" fill="#FD8127"/>
</svg>
