<svg width="52" height="52" viewBox="0 0 52 52" fill="none" xmlns="http://www.w3.org/2000/svg">
<g clip-path="url(#clip0_526_579)">
<path d="M13.8404 21.5669V19.9384C13.8404 17.9512 12.8077 16.2019 11.2516 15.1952C11.3477 14.8869 11.3979 14.5641 11.3979 14.2394C11.3979 12.4726 9.96056 11.0353 8.19377 11.0353C6.42699 11.0353 4.98967 12.4727 4.98967 14.2394C4.98967 14.5681 5.03944 14.8878 5.13572 15.1954C3.57978 16.202 2.54719 17.9513 2.54719 19.9384V21.5666C2.54719 23.4909 3.51539 25.1925 4.98957 26.2124V27.8875C4.98957 28.2178 4.80605 28.5148 4.5106 28.6626L1.87596 29.9799C0.783455 30.5263 0.104813 31.6244 0.104813 32.8459V39.4778C0.104813 39.8985 0.44586 40.2395 0.866533 40.2395C1.28721 40.2395 1.62825 39.8985 1.62825 39.4778V33.1753L2.86915 34.4162C3.18653 34.7337 3.36142 35.1557 3.36142 35.6047V39.4778C3.36142 39.8985 3.70247 40.2395 4.12314 40.2395C4.54381 40.2395 4.88486 39.8985 4.88486 39.4778V35.6047C4.88486 34.7488 4.55153 33.9443 3.94642 33.339L2.21935 31.612C2.21102 31.6036 2.20208 31.5964 2.19355 31.5886C2.30192 31.4929 2.42349 31.4097 2.55735 31.3426L5.19199 30.0254C5.32696 29.9578 5.4526 29.8781 5.5697 29.7895L7.43205 31.652V39.4779C7.43205 39.8986 7.7731 40.2396 8.19377 40.2396C8.61445 40.2396 8.95549 39.8986 8.95549 39.4779V31.6519L10.818 29.7894C10.9352 29.8781 11.0607 29.9578 11.1957 30.0253L11.9221 30.3885C12.0315 30.4433 12.1477 30.4692 12.2623 30.4692C12.5417 30.4692 12.8107 30.3148 12.9442 30.048C13.1324 29.6717 12.9798 29.2142 12.6035 29.0261L11.877 28.6628C11.5815 28.515 11.398 28.2181 11.398 27.8878V26.2127C12.8722 25.1928 13.8404 23.4911 13.8404 21.5669ZM8.19377 12.5587C9.12053 12.5587 9.87443 13.3127 9.87443 14.2394C9.87443 14.3414 9.86529 14.4415 9.84782 14.5395C9.32437 14.3788 8.76913 14.2918 8.19377 14.2918C7.61923 14.2918 7.0647 14.3785 6.54206 14.5388C6.52449 14.4408 6.51311 14.3412 6.51311 14.2394C6.51311 13.3126 7.26701 12.5587 8.19377 12.5587ZM8.19377 15.8153C10.4673 15.8153 12.3169 17.665 12.3169 19.9385V20.2145C9.14562 21.1854 7.25564 18.773 7.1749 18.6673C7.04236 18.4907 6.83974 18.3802 6.61955 18.3645C6.39936 18.3491 6.18304 18.4296 6.02693 18.5857C5.29985 19.3128 4.58769 19.6635 4.07338 19.8328C4.12974 17.608 5.95574 15.8153 8.19377 15.8153ZM8.19377 30.2591L6.43359 28.4989C6.48498 28.3024 6.51311 28.0977 6.51311 27.8876V26.9578C7.04419 27.1237 7.60877 27.2132 8.19377 27.2132C8.77878 27.2132 9.34336 27.1237 9.87443 26.9578V27.8876C9.87443 28.0977 9.90257 28.3025 9.95396 28.4989L8.19377 30.2591ZM8.19377 25.6897C5.92029 25.6897 4.07063 23.8401 4.07063 21.5666V21.4088C4.67808 21.2692 5.57874 20.9449 6.51829 20.1893C6.85071 20.5029 7.32582 20.8877 7.93083 21.2176C8.64644 21.6079 9.63475 21.969 10.8419 21.969C11.3007 21.969 11.7915 21.9157 12.3104 21.7932C12.1923 23.9618 10.3912 25.6897 8.19377 25.6897Z" fill="#FD8127"/>
<path d="M34.145 27.7455L29.7187 25.7783C29.406 25.6393 29.204 25.3284 29.204 24.9864V23.7709C30.6909 22.5861 31.6466 20.7618 31.6466 18.7173V17.0063C32.1365 16.7356 32.4608 16.2126 32.4608 15.6268V15.4607C32.4608 11.8983 29.5625 9 26.0001 9H24.3718C20.8094 9 17.9111 11.8983 17.9111 15.4607V16.9674C17.9111 17.4823 18.1327 17.9488 18.5189 18.2473C18.5845 18.2979 18.6534 18.3423 18.7252 18.3808V18.7172C18.7252 20.7617 19.6808 22.586 21.1676 23.7707V24.9863C21.1676 25.3283 20.9656 25.6392 20.653 25.7782L16.2267 27.7454C14.7771 28.3896 13.8404 29.831 13.8404 31.4173V41.5131C13.8404 41.9337 14.1814 42.2748 14.6021 42.2748C15.0227 42.2748 15.3638 41.9337 15.3638 41.5131V31.4174C15.3638 31.3292 15.3701 31.2419 15.3792 31.1554L17.4188 33.195C17.7362 33.5125 17.9111 33.9345 17.9111 34.3835V41.5132C17.9111 41.9338 18.2521 42.2749 18.6728 42.2749C19.0935 42.2749 19.4345 41.9338 19.4345 41.5132V34.3835C19.4345 33.5276 19.1013 32.723 18.4961 32.1178L16.0646 29.6862C16.2836 29.4589 16.5465 29.2705 16.8455 29.1375L21.1972 27.2035L24.4243 30.4306V41.5131C24.4243 41.9337 24.7654 42.2748 25.186 42.2748C25.6067 42.2748 25.9477 41.9337 25.9477 41.5131V30.4307L29.1749 27.2036L33.5265 29.1375C33.8255 29.2705 34.0883 29.4589 34.3074 29.6863L31.8759 32.1178C31.2706 32.723 30.9374 33.5276 30.9374 34.3835V41.5132C30.9374 41.9338 31.2785 42.2749 31.6991 42.2749C32.1198 42.2749 32.4609 41.9338 32.4609 41.5132V34.3835C32.4609 33.9346 32.6356 33.5125 32.9531 33.195L34.9926 31.1555C35.0018 31.242 35.0081 31.3291 35.0081 31.4173V41.5131C35.0081 41.9337 35.3491 42.2748 35.7698 42.2748C36.1904 42.2748 36.5315 41.9337 36.5315 41.5131V31.4174C36.5312 29.8311 35.5946 28.3897 34.145 27.7455ZM25.1857 29.038L22.3541 26.2062C22.5694 25.844 22.6909 25.4248 22.6909 24.9864V24.6764C23.4591 24.9992 24.3019 25.178 25.1858 25.178C26.0697 25.178 26.9125 24.9993 27.6805 24.6765V24.9864C27.6805 25.4249 27.8021 25.844 28.0175 26.2063L25.1857 29.038ZM25.1858 23.6545C22.4634 23.6546 20.2486 21.4397 20.2486 18.7173V18.3747C20.7239 18.1863 21.1878 17.8865 21.6319 17.4767C21.941 17.1914 21.9604 16.7095 21.675 16.4004C21.3897 16.0913 20.9079 16.0719 20.5986 16.3572C20.2177 16.7089 19.837 16.9361 19.4675 17.0326C19.4586 17.0349 19.452 17.0359 19.4473 17.0364C19.4418 17.0257 19.4344 17.0033 19.4344 16.9675V15.4608C19.4344 12.7384 21.6493 10.5235 24.3717 10.5235H25.9999C28.7224 10.5235 30.9372 12.7384 30.9372 15.4608V15.6269C30.9372 15.6515 30.9224 15.673 30.9029 15.6768C26.3416 16.5777 24.0538 14.8799 23.2819 14.108C22.9845 13.8105 22.5021 13.8105 22.2048 14.108C21.9073 14.4055 21.9073 14.8878 22.2048 15.1852C24.5701 17.5506 28.0218 17.5932 30.1231 17.3407V18.7172C30.1231 21.4396 27.9082 23.6545 25.1858 23.6545Z" fill="#FD8127"/>
<path d="M50.1241 27.5375L45.8612 25.406C45.5658 25.2583 45.3823 24.9613 45.3823 24.631V23.5515C46.3801 22.6656 47.0105 21.3745 47.0105 19.9384V19.0714C47.0281 19.0714 47.0454 19.0719 47.0629 19.0719C47.4836 19.0719 47.8247 18.7308 47.8247 18.3102V16.6819C47.8247 14.0173 45.6568 11.8494 42.9922 11.8494H41.3639C38.6993 11.8494 36.5315 14.0173 36.5315 16.6819V18.3102C36.5315 18.7308 36.8725 19.0719 37.2932 19.0719C37.2995 19.0719 37.3178 19.0717 37.3456 19.0706V19.9384C37.3456 21.3746 37.9761 22.6657 38.974 23.5516V24.6311C38.974 24.9615 38.7905 25.2585 38.4949 25.4061C38.1186 25.5942 37.9661 26.0518 38.1543 26.4281C38.2877 26.695 38.5568 26.8493 38.8362 26.8493C38.9506 26.8493 39.0668 26.8234 39.1762 26.7688C39.3112 26.7013 39.4368 26.6215 39.5539 26.533L41.4164 28.3954V38.6637C41.4164 39.0844 41.7574 39.4254 42.1781 39.4254C42.5987 39.4254 42.9398 39.0844 42.9398 38.6637V28.3952L44.8021 26.5328C44.9194 26.6214 45.0449 26.7012 45.1799 26.7686L49.3048 28.8311L48.0537 30.0823C47.4486 30.6875 47.1152 31.4921 47.1152 32.3479V38.6635C47.1152 39.0842 47.4563 39.4252 47.877 39.4252C48.2976 39.4252 48.6387 39.0842 48.6387 38.6635V32.3479C48.6387 31.899 48.8135 31.4769 49.131 31.1595L50.3161 29.9743C50.352 30.1121 50.3717 30.2559 50.3717 30.4033V38.6635C50.3717 39.0842 50.7128 39.4252 51.1335 39.4252C51.5541 39.4252 51.8952 39.0842 51.8952 38.6635V30.4033C51.8953 29.1819 51.2166 28.0838 50.1241 27.5375ZM38.0548 17.3917V16.6818H38.0549C38.0549 14.8572 39.5394 13.3728 41.3639 13.3728H42.9922C44.8168 13.3728 46.3012 14.8572 46.3012 16.6818V17.5279C42.99 17.3493 40.9917 16.0607 40.9723 16.048C40.8434 15.9621 40.6964 15.9201 40.55 15.9201C40.3534 15.9201 40.1584 15.996 40.0111 16.1432C39.2823 16.872 38.5682 17.2228 38.0548 17.3917ZM42.1781 27.0025L40.4179 25.2423C40.4693 25.0459 40.4974 24.8411 40.4974 24.631V24.4688C41.0211 24.6637 41.5873 24.7708 42.1781 24.7708C42.7689 24.7708 43.3351 24.6637 43.8587 24.4688V24.631C43.8587 24.8411 43.8868 25.0459 43.9383 25.2423L42.1781 27.0025ZM42.1781 23.2474C40.3535 23.2474 38.8691 21.7631 38.8691 19.9384V18.7104C39.4026 18.4972 40.0241 18.1583 40.6567 17.6194C41.4566 18.0356 43.1301 18.755 45.4871 18.9927V19.9384C45.4871 21.763 44.0026 23.2474 42.1781 23.2474Z" fill="#FD8127"/>
</g>
<defs>
<clipPath id="clip0_526_579">
<rect width="51.7904" height="51.2749" fill="white" transform="translate(0.104813)"/>
</clipPath>
</defs>
</svg>
