<svg width="52" height="52" viewBox="0 0 52 52" fill="none" xmlns="http://www.w3.org/2000/svg">
<path d="M49.5209 30.458H48.7427V23.4486C48.7427 22.339 48.1904 21.3564 47.347 20.7595V19.8051C47.347 18.4207 46.2207 17.2944 44.8363 17.2944H44.2553L46.4784 14.0323C47.2236 12.9388 46.9402 11.4429 45.8468 10.6977L30.7616 0.417498C30.2319 0.0564429 29.5935 -0.0768071 28.9634 0.042732C28.3336 0.162068 27.7879 0.519466 27.427 1.04922L14.4066 20.1555H10.7833L11.6575 11.3063C11.6673 11.2066 11.7321 11.1202 11.8225 11.0861C12.9488 10.6615 13.9248 9.8685 14.5707 8.85328C14.6216 8.77335 14.7176 8.72765 14.8169 8.7377L20.4998 9.29914C20.9073 9.33865 21.2698 9.04188 21.31 8.63462C21.3502 8.22735 21.0527 7.86467 20.6455 7.82445L14.9625 7.26301C14.3029 7.19842 13.6738 7.5024 13.3204 8.05774C12.8455 8.80422 12.1278 9.38719 11.2998 9.6994C10.6765 9.93441 10.2485 10.4942 10.1827 11.1606L9.29423 20.1554H8.34939L9.73186 6.15964C9.78163 5.65589 10.2312 5.28579 10.7356 5.33627L22.2197 6.47072C22.6269 6.51003 22.9896 6.21347 23.0298 5.8062C23.0701 5.39894 22.7726 5.03626 22.3653 4.99604L10.8812 3.86158C9.56459 3.73169 8.38717 4.69704 8.25707 6.0139L7.14273 17.2944H5.24503C3.86074 17.2944 2.73441 18.4207 2.73441 19.8051V20.4561C1.60189 20.9775 0.813354 22.1223 0.813354 23.4486V48.7067C0.813354 50.5227 2.29068 52 4.10672 52H45.4495C47.2654 52 48.7427 50.5227 48.7427 48.7067V41.6975H49.5209C50.4394 41.6975 51.1866 40.9503 51.1866 40.0319V32.1237C51.1867 31.2052 50.4394 30.458 49.5209 30.458ZM44.8363 18.7764C45.4037 18.7763 45.8651 19.2378 45.8651 19.8052V20.1827C45.7288 20.1654 45.5903 20.1556 45.4495 20.1556H42.3056L43.2454 18.7764H44.8363ZM28.6515 1.88365C28.7897 1.68104 28.9984 1.54433 29.2393 1.49863C29.2969 1.48776 29.3547 1.48228 29.412 1.48228C29.5945 1.48228 29.7729 1.53692 29.9271 1.64194L45.0122 11.9221C45.4305 12.2072 45.5389 12.7794 45.254 13.1976L40.5124 20.1553H39.3745L41.6992 16.7441C42.0762 16.1909 42.1072 15.4868 41.78 14.9066C41.3451 14.1357 41.1688 13.2281 41.2836 12.3507C41.3689 11.6979 41.0817 11.0607 40.534 10.6876L32.7139 5.35841C32.1662 4.98517 31.4681 4.95094 30.8918 5.26914C30.1174 5.69672 29.2081 5.8646 28.3316 5.74191C27.6816 5.65071 27.0224 5.94422 26.651 6.48911L17.3378 20.1554H16.1999L28.6515 1.88365ZM28.9779 14.4663C25.7511 14.4663 23.1024 16.9823 22.8865 20.1554H19.1309L27.8753 7.32365H27.8754C27.9251 7.25062 28.0074 7.20715 28.092 7.20715C28.1033 7.20715 28.1146 7.20797 28.1258 7.20949C29.318 7.37626 30.5545 7.14815 31.6079 6.5665C31.6908 6.52059 31.7972 6.52719 31.8793 6.58305L39.6995 11.9123C39.7814 11.9682 39.8264 12.0649 39.8142 12.1587C39.6581 13.352 39.898 14.5864 40.4894 15.6347C40.5368 15.7189 40.531 15.8268 40.4747 15.9095L37.5814 20.1553H35.0695C34.8535 16.9823 32.2048 14.4663 28.9779 14.4663ZM33.5835 20.1555H24.3723C24.5846 17.8003 26.5685 15.9483 28.9779 15.9483C31.3873 15.9482 33.3713 17.8003 33.5835 20.1555ZM4.21631 19.8051C4.21631 19.2377 4.67771 18.7762 5.24503 18.7762H6.99638L6.86018 20.1554H4.21631V19.8051ZM2.29525 23.4486C2.29525 22.4499 3.10785 21.6373 4.10672 21.6373H45.4495C46.4483 21.6373 47.2608 22.4499 47.2608 23.4486V25.5047H2.29525V23.4486ZM47.2608 48.7067C47.2608 49.7055 46.4483 50.5181 45.4495 50.5181H4.10672C3.10785 50.5181 2.29525 49.7055 2.29525 48.7067V46.6507H6.29093C6.70022 46.6507 7.03182 46.319 7.03182 45.9098C7.03182 45.5006 6.70012 45.1689 6.29093 45.1689H2.29525V26.9866H47.2608V30.458H40.2158H40.2157C37.996 30.458 36.0732 31.7519 35.1607 33.6248C35.1576 33.6311 35.1542 33.6372 35.151 33.6435C35.1433 33.6594 35.1366 33.676 35.1291 33.692C35.0204 33.9229 34.926 34.1618 34.8491 34.4084C34.8489 34.4091 34.8487 34.4098 34.8485 34.4105C34.6844 34.9375 34.596 35.4974 34.596 36.0777C34.596 39.1765 37.117 41.6975 40.2156 41.6975H40.2157H47.2607V45.1689H11.0353C10.626 45.1689 10.2944 45.5006 10.2944 45.9098C10.2944 46.319 10.6261 46.6507 11.0353 46.6507H47.2608V48.7067ZM49.7048 40.0317C49.7048 40.1331 49.6224 40.2156 49.5209 40.2156H40.2159C38.6473 40.2156 37.2797 39.3382 36.5782 38.0484C36.5463 37.9898 36.5158 37.9303 36.4867 37.8701C36.4285 37.7495 36.376 37.6257 36.3296 37.499C36.1669 37.0556 36.0781 36.5768 36.0781 36.0777C36.0781 35.5786 36.167 35.0999 36.3296 34.6565C36.3761 34.5298 36.4286 34.406 36.4867 34.2853C36.5158 34.2251 36.5463 34.1656 36.5782 34.107C37.2797 32.8173 38.6473 31.9399 40.2159 31.9399H49.5209C49.6223 31.9399 49.7048 32.0223 49.7048 32.1237V40.0317Z" fill="#FD8127"/>
</svg>
