<svg width="52" height="52" viewBox="0 0 52 52" fill="none" xmlns="http://www.w3.org/2000/svg">
<g clip-path="url(#clip0_526_567)">
<path d="M39.7292 30.2542H20.9585L31.3294 24.4745C32.4135 23.868 32.8051 22.4923 32.2017 21.4068L30.6559 18.6354C30.0482 17.5497 28.6712 17.1603 27.5878 17.7662L23.2738 20.1701C23.7811 19.152 24.0968 18.1538 24.2136 17.1843C24.4082 15.5699 24.0419 14.1129 23.1542 12.9706C21.7115 11.1142 19.1925 10.4971 17.0281 11.4698C16.6444 11.6422 16.4732 12.093 16.6456 12.4768C16.8181 12.8604 17.2689 13.0318 17.6527 12.8593C19.1738 12.1756 20.9415 12.6058 21.9513 13.9054C23.4014 15.7715 22.8452 18.6904 20.4691 21.7329L19.5492 22.2455L18.8834 21.0529C18.7125 20.7457 18.4906 20.4776 18.2296 20.2563C18.3914 19.2876 18.8424 18.0339 19.3411 17.215C19.5598 16.8557 19.446 16.3871 19.0867 16.1683C18.7273 15.9495 18.2587 16.0635 18.04 16.4228C17.5033 17.304 17.0382 18.5252 16.8043 19.6056C16.1663 19.5038 15.5186 19.6161 14.9486 19.9339L14.6852 20.0807C14.5807 17.8828 14.9215 16.0433 15.6893 14.7167C15.9 14.3526 15.7757 13.8866 15.4116 13.6759C15.0477 13.4654 14.5815 13.5895 14.3708 13.9536C13.3519 15.714 12.9637 18.05 13.213 20.9015L12.2931 21.4142C8.40655 18.5251 4.60354 17.9344 2.05199 19.8486C0.204768 21.2342 -0.491139 23.6862 0.359752 25.8114C1.22791 27.9796 3.39871 29.2999 6.38931 29.5787L1.97267 32.0397C0.889197 32.6439 0.498486 34.0186 1.10217 35.1047L2.64765 37.8784C3.05949 38.6164 3.82913 39.0329 4.62142 39.0329C4.99253 39.0329 5.36861 38.9415 5.71524 38.749C5.71555 38.7489 5.71585 38.7487 5.71616 38.7485L10.6934 35.9748V48.3816C10.6934 49.8732 11.9072 51.0866 13.3992 51.0866H38.8725C40.3644 51.0866 41.5783 49.8732 41.5783 48.3816V32.1028C41.5782 31.0835 40.7487 30.2542 39.7292 30.2542ZM14.3443 32.1962L12.087 28.1479L18.9607 24.3177L21.2178 28.3656L17.7808 30.2811C17.6581 30.314 17.5478 30.3765 17.4579 30.461L14.3443 32.1962ZM28.3307 19.0965C28.443 19.0336 28.565 19.0038 28.6855 19.0038C28.9423 19.0038 29.192 19.1391 29.3262 19.3785L30.8708 22.1478C31.0666 22.5001 30.9386 22.9474 30.5868 23.1443L22.5486 27.6239L20.2916 23.576L28.3307 19.0965ZM15.6905 21.2647C15.8949 21.1508 16.1207 21.0929 16.3503 21.0929C16.4769 21.0929 16.6046 21.1106 16.7303 21.1462C17.0838 21.2466 17.3757 21.4765 17.5528 21.7948L18.2182 22.9868L11.345 26.8169L10.6785 25.6212C10.5473 25.386 10.4906 25.1223 10.511 24.8579C10.5117 24.8506 10.5126 24.8434 10.5132 24.8361C10.5211 24.7518 10.5361 24.6675 10.5599 24.5841C10.6601 24.2317 10.8903 23.9404 11.2085 23.7635L15.6905 21.2647ZM1.77401 25.2453C1.17875 23.7585 1.66889 22.0406 2.96615 21.0675C4.83439 19.6662 7.72039 20.112 10.8214 22.235L10.4676 22.4322C9.90734 22.7437 9.47651 23.2227 9.22524 23.803C8.21937 23.4862 7.31607 23.3123 6.02206 23.1707C5.60353 23.1252 5.22774 23.4268 5.18194 23.8449C5.13613 24.2632 5.43808 24.6393 5.85621 24.6851C7.27961 24.8409 8.11699 25.0347 9.00699 25.333C9.0535 25.6906 9.16735 26.0394 9.34793 26.3631L10.0144 27.5588L9.18279 28.0222C5.40263 28.4355 2.638 27.4033 1.77401 25.2453ZM4.97465 37.418C4.627 37.6103 4.17068 37.4816 3.97812 37.1367L2.43335 34.3642C2.23754 34.012 2.36378 33.5662 2.71448 33.3707L9.75997 29.4447C9.78231 29.4336 9.80395 29.4216 9.82487 29.4085L10.7563 28.8895L13.0136 32.9378L11.0969 34.0061C11.0929 34.0082 11.0889 34.0105 11.0849 34.0128L4.97465 37.418ZM12.2169 48.3817V35.1259L18.2248 31.7777H21.7371V38.5235C21.7371 38.9441 22.0782 39.2852 22.4989 39.2852C22.9195 39.2852 23.2606 38.9441 23.2606 38.5235V31.7777H29.0109V49.5633H23.2606V42.1324C23.2606 41.7117 22.9195 41.3707 22.4989 41.3707C22.0782 41.3707 21.7371 41.7117 21.7371 42.1324V49.5633H13.3992C12.7472 49.5633 12.2169 49.0333 12.2169 48.3817ZM40.0547 48.3817C40.0547 49.0333 39.5244 49.5633 38.8725 49.5633H30.5345V31.7777H39.7292C39.9057 31.7777 40.0547 31.9266 40.0547 32.1028V48.3817Z" fill="#FD8127"/>
<path d="M36.9363 13.1888C36.9464 13.2824 37.9131 22.5962 34.6519 26.1314C34.3666 26.4407 34.3861 26.9226 34.6953 27.2078C34.8418 27.3429 35.0269 27.4096 35.2116 27.4096C35.4169 27.4096 35.6215 27.3271 35.7718 27.1643C39.4972 23.1258 38.4954 13.4352 38.4509 13.0246C38.4056 12.6063 38.03 12.3045 37.6116 12.3493C37.1933 12.3948 36.891 12.7706 36.9363 13.1888Z" fill="#FD8127"/>
<path d="M43.9039 12.0568C42.6152 14.0299 42.2058 15.7909 42.189 15.865C42.096 16.2747 42.3524 16.6815 42.7619 16.7754C42.8191 16.7884 42.8761 16.7947 42.9323 16.7947C43.2792 16.7947 43.5929 16.5558 43.6742 16.2036C43.6779 16.1877 44.0549 14.5942 45.209 12.8445C46.7277 10.5422 48.8152 9.06029 51.4135 8.44005C51.8227 8.34245 52.0753 7.93152 51.9776 7.52233C51.88 7.11313 51.4692 6.86065 51.0599 6.95825C48.0945 7.66604 45.62 9.42906 43.9039 12.0568Z" fill="#FD8127"/>
<path d="M28.2786 7.87242C28.2812 7.8909 28.2847 7.93519 28.2779 8.02456L28.0985 10.2409C28.073 10.4759 28.0227 11.002 28.4521 11.3269C28.8888 11.6573 29.4018 11.4502 29.6286 11.3587L31.6643 10.5102C31.7046 10.4972 31.804 10.4968 31.8408 10.5082L33.8927 11.3617C34.0217 11.4139 34.2531 11.5073 34.5107 11.5073C34.6894 11.5073 34.8809 11.4623 35.0594 11.3272C35.4876 11.0031 35.4375 10.4769 35.412 10.2413L35.2359 8.02811C35.2291 7.93894 35.2316 7.89365 35.2339 7.87354L36.7127 6.09142C36.8836 5.89744 37.2209 5.50469 37.062 4.99546C36.9008 4.47881 36.376 4.34851 36.1517 4.29285L33.9033 3.73517L32.7208 1.7613C32.6121 1.57778 32.3232 1.09048 31.7589 1.08896C31.758 1.08896 31.7571 1.08896 31.7563 1.08896C31.1935 1.08896 30.9019 1.57463 30.7921 1.75775C30.792 1.75795 30.7919 1.75815 30.7918 1.75836L29.6184 3.71719L29.6077 3.73527L27.3577 4.29326C27.1341 4.34912 26.6102 4.48003 26.4495 4.99658C26.2911 5.50571 26.6398 5.91196 26.7982 6.09183L28.2786 7.87242ZM30.047 5.19584C30.5549 5.07031 30.7381 4.81874 30.8955 4.55001L31.7552 3.11411L32.6227 4.56219C32.7794 4.82534 32.9616 5.07183 33.4627 5.19564L35.1327 5.60981L34.0573 6.90575C33.7038 7.32358 33.6895 7.7868 33.717 8.14644L33.8398 9.68978L32.4297 9.10315C32.0292 8.93395 31.4885 8.93344 31.084 9.10173L29.6715 9.69039L29.7966 8.1439C29.8214 7.81818 29.8136 7.33597 29.4603 6.91093L28.3783 5.60971L30.047 5.19584Z" fill="#FD8127"/>
<path d="M51.6078 23.6034C51.7683 23.4228 52.1176 23.0178 51.96 22.5085C51.7996 21.9901 51.2729 21.8593 51.0479 21.8034L48.8026 21.2466L47.6178 19.2682C47.5079 19.0852 47.2163 18.5994 46.6536 18.5994C46.6526 18.5994 46.6517 18.5994 46.6509 18.5994C46.0887 18.601 45.7998 19.0849 45.6901 19.2699L44.5145 21.2276L44.5034 21.2466L42.2579 21.8034C42.0331 21.8592 41.5064 21.99 41.346 22.5084C41.1885 23.0177 41.5376 23.4227 41.6982 23.6032L43.176 25.384C43.1783 25.404 43.1808 25.4485 43.1742 25.5349L42.9947 27.7509C42.9708 27.9852 42.9219 28.5157 43.3525 28.8392C43.7883 29.1666 44.299 28.9603 44.5248 28.869L46.5607 28.0206C46.6022 28.0073 46.7039 28.0073 46.7398 28.0184L48.7889 28.8721C48.9179 28.9242 49.149 29.0176 49.4067 29.0176C49.5848 29.0176 49.7755 28.9729 49.9537 28.8391C50.3842 28.5156 50.3354 27.9852 50.3115 27.7508L50.1323 25.5385C50.1255 25.4494 50.1279 25.4041 50.1302 25.3839L51.6078 23.6034ZM48.9536 24.4162C48.6 24.834 48.5858 25.2973 48.6132 25.658L48.7382 27.2008L47.3255 26.6121C46.9232 26.4445 46.3826 26.4446 45.9804 26.6121L44.5677 27.2008L44.693 25.6543C44.7202 25.2973 44.706 24.834 44.3571 24.4218L43.2771 23.1202L44.9483 22.7057C45.4523 22.5798 45.6347 22.3289 45.7916 22.0611L46.6542 20.6239L47.4838 22.009L47.5146 22.0611C47.6714 22.329 47.8539 22.5799 48.3592 22.706L50.0292 23.1202L48.9536 24.4162Z" fill="#FD8127"/>
<path d="M43.8743 7.61627C45.9755 7.61627 47.685 5.9086 47.685 3.80961C47.685 1.70899 45.9755 0 43.8743 0C41.7731 0 40.0636 1.70899 40.0636 3.80961C40.0636 5.9086 41.7731 7.61627 43.8743 7.61627ZM43.8743 1.52344C45.1355 1.52344 46.1616 2.54902 46.1616 3.80961C46.1616 5.06858 45.1355 6.09284 43.8743 6.09284C42.6131 6.09284 41.5871 5.06858 41.5871 3.80961C41.587 2.54902 42.6131 1.52344 43.8743 1.52344Z" fill="#FD8127"/>
</g>
<defs>
<clipPath id="clip0_526_567">
<rect width="51.9999" height="51.0866" fill="white"/>
</clipPath>
</defs>
</svg>
