<svg width="52" height="52" viewBox="0 0 52 52" fill="none" xmlns="http://www.w3.org/2000/svg">
<g clip-path="url(#clip0_526_575)">
<path d="M24.5337 30.9629C24.865 31.3405 25.3294 31.5336 25.7963 31.5336C26.1896 31.5336 26.5846 31.3965 26.9029 31.1172L34.4175 24.5177C34.7336 24.2401 34.7647 23.7588 34.4872 23.4427C34.2096 23.1266 33.7283 23.0954 33.4122 23.373L25.8979 29.9724C25.8578 30.0076 25.8149 30.013 25.7853 30.0108C25.7561 30.0088 25.714 29.9982 25.6788 29.958L23.5233 27.5036C24.2769 27.8401 24.5697 28.123 25.1651 28.123C25.7775 28.123 26.3752 27.7854 26.6707 27.1878L33.4556 13.4712L38.2444 18.9246C38.279 18.964 38.2841 19.007 38.2822 19.0361C38.2802 19.0651 38.2698 19.1067 38.2292 19.1422L36.0822 21.0282C35.7661 21.3058 35.7351 21.7871 36.0126 22.1031C36.1633 22.2745 36.3737 22.3621 36.5853 22.3621C36.7637 22.3621 36.943 22.2997 37.0877 22.1727L39.2334 20.2878C39.5709 19.9925 39.773 19.5833 39.8022 19.1356C39.8316 18.6876 39.6845 18.2553 39.3886 17.9189L34.1103 11.908C34.1806 11.2303 33.8329 10.5482 33.1872 10.2281L24.993 6.17476C24.591 5.976 24.1359 5.94573 23.7113 6.08934C23.2868 6.23295 22.9434 6.53347 22.7447 6.93536L20.0314 12.4217L16.3043 11.7643C16.3026 11.764 16.3009 11.764 16.2991 11.7637C16.0713 11.7255 15.8382 11.7934 15.6681 11.9432L10.4286 16.5633C10.2134 16.7529 9.95069 16.876 9.67109 16.9229C9.50259 16.2309 8.8792 15.7149 8.13607 15.7149H6.60847V15.6155C6.60847 14.5406 5.73391 13.666 4.65898 13.666H1.32102C0.592617 13.6658 0 14.2584 0 14.9869V16.8594C0 17.2801 0.341047 17.6212 0.761719 17.6212C1.18239 17.6212 1.52344 17.2801 1.52344 16.8594V15.1893H4.65898C4.89389 15.1893 5.08503 15.3805 5.08503 15.6154V26.3984C5.08503 26.6333 4.89389 26.8244 4.65898 26.8244H1.52344V20.4139C1.52344 19.9932 1.18239 19.6522 0.761719 19.6522C0.341047 19.6522 0 19.9932 0 20.4139V27.0268C0 27.7552 0.592617 28.3478 1.32102 28.3478H4.65887C5.73381 28.3478 6.60837 27.4732 6.60837 26.3983V26.2994H8.13617C8.88753 26.2994 9.51702 25.7722 9.67708 25.0684H11.5009C11.7387 25.0684 11.9705 25.1519 12.1542 25.3042L13.1011 26.0866C13.556 26.4635 14.1329 26.671 14.7255 26.671H20.7646L24.5337 30.9629ZM24.1102 7.61044C24.1338 7.56281 24.1717 7.54169 24.1994 7.53224C24.2269 7.5229 24.27 7.5167 24.3176 7.54016L32.5112 11.5932C32.5881 11.6313 32.6198 11.7245 32.5821 11.8009L25.3051 26.5123C25.2815 26.56 25.2437 26.5811 25.2159 26.5905C25.1883 26.5999 25.1454 26.6061 25.0977 26.5826L16.9042 22.5306C16.8276 22.4926 16.7962 22.399 16.8343 22.3219L18.0559 19.8522C19.2087 19.6645 20.2488 19.0062 20.9063 18.0053L23.9792 18.5475C24.0852 18.5662 24.1839 18.5788 24.274 18.5855C25.9534 18.725 27.44 17.579 27.7317 15.9202L27.8171 15.4394C27.971 14.558 27.3805 13.7161 26.5021 13.5626L21.5944 12.6971L24.1102 7.61044ZM8.19406 24.7182C8.19406 24.7501 8.16806 24.7761 8.13617 24.7761H6.60847V17.2382H8.13617C8.16867 17.2382 8.19406 17.2636 8.19406 17.2961V24.7182ZM14.0723 24.9131L13.1255 24.1307C12.6698 23.7531 12.0929 23.5452 11.501 23.5452H9.7175V18.453C10.3522 18.3905 10.9534 18.131 11.4359 17.706L16.4006 13.3282L26.2387 15.0633C26.2909 15.0724 26.3257 15.1236 26.3167 15.1754L26.2315 15.6554C26.0769 16.5345 25.2897 17.141 24.394 17.0671C24.3483 17.0637 24.2989 17.0573 24.2436 17.0475L20.8013 16.4401C20.3846 16.3668 19.9679 16.5698 19.763 16.9494C19.2096 17.9877 18.059 18.5479 16.8993 18.344C16.4853 18.2714 16.0899 18.5477 16.017 18.962C15.9589 19.2919 16.1228 19.6089 16.4011 19.7615L15.4686 21.6467C15.0585 22.4761 15.3989 23.4852 16.2282 23.896L18.7597 25.1479H14.7255C14.487 25.1478 14.2552 25.0647 14.0723 24.9131Z" fill="#FD8127"/>
<path d="M50.679 29.7052H47.3411C46.2662 29.7052 45.3916 30.5797 45.3916 31.6547V31.7535H43.8638C43.1127 31.7535 42.4835 32.2807 42.3231 32.9844H29.4978C28.1684 32.9844 27.0867 34.0665 27.0867 35.3965C27.0867 36.726 28.1683 37.8076 29.4978 37.8076H32.9264L30.7933 40.5716C30.5282 40.9147 30.1278 41.1114 29.6949 41.1114H25.4059C25.3134 41.1114 25.2234 41.0977 25.1365 41.0703L21.0048 39.7722C19.7597 39.3813 18.4387 40.0148 17.9978 41.2147C17.7699 41.8361 17.805 42.5046 18.0965 43.0972C18.384 43.6816 18.9052 44.1289 19.5267 44.3244L24.1781 45.7858C24.4128 45.8596 24.6571 45.8971 24.9042 45.8971H27.1681C27.5887 45.8971 27.9298 45.556 27.9298 45.1353C27.9298 44.7147 27.5887 44.3736 27.1681 44.3736H24.9042C24.8123 44.3736 24.7218 44.3598 24.6349 44.3325L19.9836 42.8711C19.7544 42.799 19.5697 42.6405 19.4635 42.4246C19.3576 42.2093 19.345 41.966 19.428 41.7397C19.5852 41.3117 20.0881 41.0812 20.5484 41.2256L24.6786 42.5231C24.9128 42.5971 25.1574 42.6348 25.4061 42.6348H29.6951C30.6035 42.6348 31.4432 42.2222 31.9993 41.5026L35.0797 37.5112C35.2571 37.2812 35.2884 36.9704 35.1602 36.7098C35.0322 36.4492 34.767 36.2841 34.4766 36.2841H29.498C29.0086 36.2841 28.6104 35.8859 28.6104 35.3964C28.6104 34.9064 29.0085 34.5077 29.498 34.5077H42.2827V39.5849H40.416C39.8734 39.5849 39.3416 39.7721 38.9173 40.1131L34.1184 43.9807C33.8042 44.2341 33.4081 44.3735 33.003 44.3735H30.7227C30.302 44.3735 29.9609 44.7146 29.9609 45.1352C29.9609 45.5559 30.302 45.897 30.7227 45.897H33.0027C33.7545 45.897 34.4902 45.6376 35.0742 45.1667L39.8722 41.2999C40.026 41.1763 40.2191 41.1083 40.4158 41.1083H42.3232C42.4836 41.8114 43.1128 42.3382 43.8638 42.3382H45.3915V42.4376C45.3915 43.5126 46.2661 44.3871 47.341 44.3871H50.6789C51.4073 44.3871 51.9999 43.7945 51.9999 43.0661V31.0262C52 30.2978 51.4074 29.7052 50.679 29.7052ZM43.8638 40.8149C43.8313 40.8149 43.8059 40.7895 43.8059 40.757V33.3358C43.8059 33.3033 43.8319 33.2769 43.8638 33.2769H45.3915V40.8149H43.8638ZM50.4766 42.8638H47.341C47.1061 42.8638 46.915 42.6727 46.915 42.4377V31.6547C46.915 31.4197 47.1061 31.2286 47.341 31.2286H50.4766V42.8638Z" fill="#FD8127"/>
</g>
<defs>
<clipPath id="clip0_526_575">
<rect width="51.9999" height="51.8971" fill="white"/>
</clipPath>
</defs>
</svg>
