<svg width="52" height="52" viewBox="0 0 52 52" fill="none" xmlns="http://www.w3.org/2000/svg">
<g clip-path="url(#clip0_526_530)">
<path d="M51.1338 2.269e-08H51.1333H0.866667C0.388158 -0.000108311 0.000108333 0.387725 0 0.866233V0.866667V18.2H1.73333V1.73333H50.2667V20.8H19.9333V22.5333H51.1333C51.6118 22.5334 51.9999 22.1456 52 21.6671V21.6667V0.866667C52.0001 0.388158 51.6123 0.000108356 51.1338 2.269e-08Z" fill="#FD8127"/>
<path d="M45.9333 4.33333H28.6V6.06666H45.9333V4.33333Z" fill="#FD8127"/>
<path d="M48.5333 9.53334H31.2V11.2667H48.5333V9.53334Z" fill="#FD8127"/>
<path d="M45.0667 14.7333H27.7333V16.4667H45.0667V14.7333Z" fill="#FD8127"/>
<path d="M27.6642 7.47218C27.0709 6.04597 25.4337 5.37083 24.0076 5.96418C23.9833 5.97436 23.959 5.98476 23.9349 5.99559L16.9076 9.64101C17.1847 9.06663 17.3302 8.43764 17.3333 7.79999C17.3333 5.4068 15.3932 3.46666 13 3.46666C10.6068 3.46666 8.66667 5.4068 8.66667 7.79999C8.66992 8.74065 8.98224 9.65423 9.55554 10.4H9.51947C7.05943 10.4165 4.86341 11.9458 3.9949 14.2476L1.68133 22.2219C1.13057 23.6525 1.84383 25.2589 3.27459 25.8097C3.92698 26.0608 4.6501 26.0565 5.29956 25.7977C6.04576 25.4971 6.62642 24.89 6.89368 24.1312L7.8 21.2469V33.79C7.05423 33.2168 6.14066 32.9045 5.2 32.9012C2.81038 32.8976 0.870242 34.8319 0.866667 37.2216C0.864933 38.3919 1.33727 39.513 2.17609 40.3291C0.844892 41.0093 0.00520002 42.376 2.269e-08 43.8708V51.1333C-0.000108311 51.6118 0.387725 51.9999 0.866233 52H0.866667H9.53333C10.0118 52.0001 10.3999 51.6123 10.4 51.1338V51.1333V43.8708C10.3958 42.6424 9.82508 41.4847 8.85343 40.7333H15.4133C14.4416 41.4847 13.8709 42.6424 13.8668 43.8708V51.1333C13.8667 51.6118 14.2545 51.9999 14.733 52H14.7334H23.4001C23.8786 52.0001 24.2667 51.6123 24.2668 51.1338V51.1333V43.8708C24.2616 42.376 23.4219 41.0093 22.0907 40.3291C23.8018 38.659 23.8351 35.9178 22.1649 34.2067C21.1364 33.1529 19.6428 32.6941 18.2001 32.9888V15.2597L26.1562 11.1286C27.5823 10.5354 28.2575 8.89828 27.6642 7.47218ZM13 5.19999C14.436 5.19999 15.6 6.36403 15.6 7.79999C15.6 9.23595 14.436 10.4 13 10.4C11.5647 10.3985 10.4015 9.2353 10.4 7.79999C10.4 6.36403 11.564 5.19999 13 5.19999ZM5.2 34.6345C6.63596 34.6345 7.8 35.7985 7.8 37.2345C7.8 38.6704 6.63596 39.8345 5.2 39.8345C3.76404 39.8345 2.6 38.6704 2.6 37.2345C2.60152 35.7992 3.76469 34.6361 5.2 34.6345ZM8.66667 50.2667H1.73333V43.8708C1.73507 42.6172 2.75091 41.6015 4.00454 41.6H6.39546C7.64898 41.6015 8.66493 42.6172 8.66667 43.8708V50.2667ZM22.5333 43.8708V50.2667H15.6V43.8708C15.6017 42.6172 16.6176 41.6015 17.8712 41.6H20.2621C21.5158 41.6015 22.5316 42.6172 22.5333 43.8708ZM19.0667 34.6345C20.502 34.636 21.6651 35.7992 21.6667 37.2345C21.6667 38.6704 20.5026 39.8345 19.0667 39.8345C17.6307 39.8345 16.4667 38.6704 16.4667 37.2345C16.4667 35.7985 17.6307 34.6345 19.0667 34.6345ZM26.0783 8.91799C25.9623 9.21569 25.7241 9.44937 25.4241 9.55954L16.9343 13.9639C16.647 14.113 16.4667 14.4097 16.4667 14.7333V33.79C14.8433 34.9904 14.2809 37.1628 15.1181 39H13.8667V24.2667H12.1333V39H9.14853C9.3951 38.4551 9.52499 37.8647 9.53008 37.2667H9.53333V15.6C9.53323 15.1213 9.14507 14.7333 8.66645 14.7334C8.28804 14.7335 7.9534 14.9791 7.83987 15.3402L5.252 23.5752C5.05592 24.116 4.45846 24.3955 3.91766 24.1993C3.87974 24.1855 3.84258 24.1696 3.8064 24.1515C3.30644 23.8931 3.09422 23.2899 3.32237 22.7753L5.63583 14.801C6.25972 13.1988 7.79989 12.1408 9.51936 12.1333H15.6559C15.7948 12.1335 15.9317 12.1001 16.055 12.036L24.6688 7.5648C25.1856 7.34922 25.7812 7.56978 26.0327 8.07007C26.1661 8.33375 26.1827 8.64142 26.0783 8.91799Z" fill="#FD8127"/>
<path d="M35.9572 40.3291C37.6714 38.6591 37.7071 35.9155 36.0371 34.2014C34.367 32.4872 31.6235 32.4515 29.9093 34.1215C28.1952 35.7916 28.1594 38.5351 29.8295 40.2493C29.8558 40.2763 29.8825 40.3029 29.9094 40.3291C28.5783 41.0093 27.7385 42.376 27.7333 43.8708V51.1333C27.7332 51.6118 28.1211 51.9999 28.5996 52C28.5997 52 28.5999 52 28.6 52H37.2667C37.7452 52.0001 38.1332 51.6123 38.1333 51.1338C38.1333 51.1337 38.1333 51.1334 38.1333 51.1333V43.8708C38.1281 42.376 37.2884 41.0093 35.9572 40.3291ZM32.9333 34.6345C34.3693 34.6345 35.5333 35.7985 35.5333 37.2345C35.5333 38.6704 34.3693 39.8345 32.9333 39.8345C31.4974 39.8345 30.3333 38.6704 30.3333 37.2345C30.3349 35.7992 31.498 34.6361 32.9333 34.6345ZM36.4 50.2667H29.4667V43.8708C29.4684 42.6172 30.4842 41.6015 31.7379 41.6H34.1288C35.3823 41.6015 36.3983 42.6172 36.4 43.8708V50.2667Z" fill="#FD8127"/>
<path d="M49.8239 40.3291C51.5381 38.6591 51.5738 35.9155 49.9037 34.2014C48.2337 32.4872 45.4901 32.4515 43.776 34.1215C42.0618 35.7916 42.0261 38.5351 43.6961 40.2493C43.7225 40.2763 43.7491 40.3029 43.7761 40.3291C42.445 41.0093 41.6052 42.376 41.6 43.8708V51.1333C41.5999 51.6118 41.9877 51.9999 42.4662 52C42.4663 52 42.4666 52 42.4667 52H51.1333C51.6118 52.0001 51.9999 51.6123 52 51.1338C52 51.1337 52 51.1334 52 51.1333V43.8708C51.9948 42.376 51.1551 41.0093 49.8239 40.3291ZM46.8 34.6345C48.236 34.6345 49.4 35.7985 49.4 37.2345C49.4 38.6704 48.236 39.8345 46.8 39.8345C45.364 39.8345 44.2 38.6704 44.2 37.2345C44.2015 35.7992 45.3647 34.6361 46.8 34.6345ZM50.2667 50.2667H43.3333V43.8708C43.3351 42.6172 44.3509 41.6015 45.6045 41.6H47.9955C49.249 41.6015 50.2649 42.6172 50.2667 43.8708V50.2667Z" fill="#FD8127"/>
</g>
<defs>
<clipPath id="clip0_526_530">
<rect width="52" height="52" fill="white"/>
</clipPath>
</defs>
</svg>
