<svg width="12" height="20" viewBox="0 0 12 20" fill="none" xmlns="http://www.w3.org/2000/svg">
<path d="M2.54266 9.99991L11.0347 1.27291C11.1046 1.20258 11.1599 1.11908 11.1973 1.02725C11.2347 0.935419 11.2536 0.837075 11.2527 0.73791C11.2519 0.638745 11.2314 0.540728 11.1925 0.449531C11.1535 0.358334 11.0969 0.275767 11.0258 0.20661C10.9547 0.137452 10.8706 0.0830768 10.7784 0.04663C10.6862 0.0101833 10.5876 -0.00761119 10.4885 -0.00572347C10.3893 -0.00383576 10.2916 0.0176966 10.2008 0.0576276C10.11 0.0975585 10.0281 0.155095 9.95966 0.226908L0.959663 9.47691C0.823441 9.61692 0.747223 9.80456 0.747223 9.99991C0.747223 10.1953 0.823441 10.3829 0.959663 10.5229L9.95966 19.7729C10.0281 19.8447 10.11 19.9023 10.2008 19.9422C10.2916 19.9821 10.3893 20.0037 10.4885 20.0055C10.5876 20.0074 10.6862 19.9896 10.7784 19.9532C10.8706 19.9167 10.9547 19.8624 11.0258 19.7932C11.0969 19.7241 11.1535 19.6415 11.1925 19.5503C11.2314 19.4591 11.2519 19.3611 11.2527 19.2619C11.2536 19.1627 11.2347 19.0644 11.1973 18.9726C11.1599 18.8807 11.1046 18.7972 11.0347 18.7269L2.54266 9.99991Z" fill="black"/>
</svg>
