<svg width="12" height="20" viewBox="0 0 12 20" fill="none" xmlns="http://www.w3.org/2000/svg">
<path d="M9.45734 10.0001L0.965338 18.7271C0.895422 18.7974 0.840148 18.8809 0.802713 18.9727C0.765279 19.0646 0.746428 19.1629 0.747252 19.2621C0.748075 19.3613 0.768558 19.4593 0.807512 19.5505C0.846467 19.6417 0.903121 19.7242 0.974195 19.7934C1.04527 19.8625 1.12935 19.9169 1.22158 19.9534C1.31381 19.9898 1.41235 20.0076 1.5115 20.0057C1.61065 20.0038 1.70845 19.9823 1.79922 19.9424C1.88999 19.9024 1.97195 19.8449 2.04034 19.7731L11.0403 10.5231C11.1766 10.3831 11.2528 10.1954 11.2528 10.0001C11.2528 9.80475 11.1766 9.61711 11.0403 9.47709L2.04034 0.227091C1.97195 0.155277 1.88999 0.0977421 1.79922 0.0578117C1.70845 0.0178814 1.61065 -0.00365067 1.5115 -0.00553894C1.41235 -0.00742722 1.31381 0.0103664 1.22158 0.046814C1.12935 0.0832615 1.04527 0.137636 0.974195 0.206793C0.903121 0.275949 0.846467 0.358517 0.807512 0.449715C0.768558 0.540913 0.748075 0.638929 0.747252 0.738094C0.746428 0.837259 0.765279 0.935604 0.802713 1.02744C0.840148 1.11927 0.895422 1.20276 0.965338 1.27309L9.45734 10.0001Z" fill="black"/>
</svg>
