<svg width="270" height="230" viewBox="0 0 270 230" fill="none" xmlns="http://www.w3.org/2000/svg">
<rect width="270" height="230" rx="24" fill="#FEF3EA"/>
<g clip-path="url(#clip0_547_620)">
<path d="M148.729 54.7109H129.959L140.329 48.9312C141.414 48.3246 141.805 46.949 141.202 45.8635L139.656 43.092C139.048 42.0063 137.671 41.6169 136.588 42.2229L132.274 44.6267C132.781 43.6087 133.097 42.6104 133.214 41.6409C133.408 40.0266 133.042 38.5696 132.154 37.4273C130.712 35.5708 128.193 34.9537 126.028 35.9264C125.644 36.0988 125.473 36.5497 125.646 36.9335C125.818 37.3171 126.269 37.4884 126.653 37.316C128.174 36.6322 129.942 37.0625 130.951 38.3621C132.402 40.2282 131.845 43.1471 129.469 46.1896L128.549 46.7022L127.883 45.5095C127.713 45.2023 127.491 44.9343 127.23 44.713C127.391 43.7443 127.842 42.4906 128.341 41.6717C128.56 41.3123 128.446 40.8437 128.087 40.625C127.727 40.4061 127.259 40.5202 127.04 40.8794C126.503 41.7606 126.038 42.9818 125.804 44.0623C125.166 43.9604 124.519 44.0727 123.949 44.3905L123.685 44.5374C123.581 42.3395 123.922 40.5 124.689 39.1733C124.9 38.8092 124.776 38.3433 124.412 38.1325C124.048 37.922 123.582 38.0461 123.371 38.4102C122.352 40.1707 121.964 42.5066 122.213 45.3581L121.293 45.8709C117.407 42.9817 113.604 42.391 111.052 44.3052C109.205 45.6908 108.509 48.1428 109.36 50.268C110.228 52.4362 112.399 53.7565 115.389 54.0353L110.973 56.4963C109.889 57.1005 109.499 58.4752 110.102 59.5613L111.648 62.3351C112.06 63.073 112.829 63.4895 113.621 63.4895C113.993 63.4895 114.369 63.3981 114.715 63.2057C114.716 63.2056 114.716 63.2054 114.716 63.2052L119.693 60.4314V72.8383C119.693 74.3298 120.907 75.5433 122.399 75.5433H147.873C149.364 75.5433 150.578 74.3298 150.578 72.8383V56.5594C150.578 55.5401 149.749 54.7109 148.729 54.7109ZM123.344 56.6529L121.087 52.6046L127.961 48.7743L130.218 52.8222L126.781 54.7377C126.658 54.7706 126.548 54.8332 126.458 54.9177L123.344 56.6529ZM137.331 43.5531C137.443 43.4903 137.565 43.4604 137.686 43.4604C137.942 43.4604 138.192 43.5958 138.326 43.8352L139.871 46.6045C140.067 46.9567 139.939 47.4041 139.587 47.6009L131.549 52.0805L129.292 48.0326L137.331 43.5531ZM124.691 45.7214C124.895 45.6074 125.121 45.5495 125.35 45.5495C125.477 45.5495 125.605 45.5672 125.73 45.6029C126.084 45.7032 126.376 45.9331 126.553 46.2514L127.218 47.4435L120.345 51.2735L119.679 50.0778C119.547 49.8427 119.491 49.5789 119.511 49.3146C119.512 49.3072 119.513 49.3 119.513 49.2927C119.521 49.2084 119.536 49.1241 119.56 49.0407C119.66 48.6883 119.89 48.397 120.209 48.2201L124.691 45.7214ZM110.774 49.7019C110.179 48.2151 110.669 46.4972 111.966 45.5241C113.834 44.1228 116.72 44.5686 119.821 46.6916L119.468 46.8888C118.907 47.2003 118.477 47.6793 118.225 48.2596C117.219 47.9429 116.316 47.769 115.022 47.6273C114.604 47.5818 114.228 47.8834 114.182 48.3016C114.136 48.7198 114.438 49.0959 114.856 49.1417C116.28 49.2975 117.117 49.4914 118.007 49.7897C118.054 50.1473 118.167 50.496 118.348 50.8197L119.014 52.0154L118.183 52.4788C114.403 52.8921 111.638 51.8599 110.774 49.7019ZM113.975 61.8746C113.627 62.067 113.171 61.9383 112.978 61.5934L111.433 58.8208C111.238 58.4686 111.364 58.0228 111.715 57.8273L118.76 53.9013C118.782 53.8903 118.804 53.8783 118.825 53.8652L119.756 53.3462L122.014 57.3945L120.097 58.4627C120.093 58.4648 120.089 58.4672 120.085 58.4694L113.975 61.8746ZM121.217 72.8384V59.5825L127.225 56.2343H130.737V62.9801C130.737 63.4008 131.078 63.7418 131.499 63.7418C131.92 63.7418 132.261 63.4008 132.261 62.9801V56.2343H138.011V74.0199H132.261V66.589C132.261 66.1684 131.92 65.8273 131.499 65.8273C131.078 65.8273 130.737 66.1684 130.737 66.589V74.0199H122.399C121.747 74.0199 121.217 73.4899 121.217 72.8384ZM149.055 72.8384C149.055 73.4899 148.524 74.0199 147.873 74.0199H139.535V56.2343H148.729C148.906 56.2343 149.055 56.3832 149.055 56.5594V72.8384Z" fill="#FD8127"/>
<path d="M145.936 37.6454C145.946 37.7391 146.913 47.0529 143.652 50.5881C143.367 50.8973 143.386 51.3792 143.695 51.6644C143.842 51.7995 144.027 51.8662 144.212 51.8662C144.417 51.8662 144.622 51.7837 144.772 51.6209C148.497 47.5824 147.495 37.8918 147.451 37.4812C147.406 37.063 147.03 36.7611 146.612 36.8059C146.193 36.8514 145.891 37.2272 145.936 37.6454Z" fill="#FD8127"/>
<path d="M152.904 36.5134C151.615 38.4866 151.206 40.2476 151.189 40.3216C151.096 40.7313 151.352 41.1382 151.762 41.232C151.819 41.245 151.876 41.2513 151.932 41.2513C152.279 41.2513 152.593 41.0124 152.674 40.6602C152.678 40.6444 153.055 39.0509 154.209 37.3011C155.728 34.9988 157.815 33.5169 160.414 32.8967C160.823 32.7991 161.075 32.3882 160.978 31.979C160.88 31.5698 160.469 31.3173 160.06 31.4149C157.095 32.1227 154.62 33.8857 152.904 36.5134Z" fill="#FD8127"/>
<path d="M137.279 32.329C137.281 32.3475 137.285 32.3918 137.278 32.4812L137.099 34.6975C137.073 34.9325 137.023 35.4586 137.452 35.7835C137.889 36.114 138.402 35.9068 138.629 35.8153L140.664 34.9668C140.705 34.9538 140.804 34.9534 140.841 34.9648L142.893 35.8183C143.022 35.8705 143.253 35.964 143.511 35.964C143.69 35.964 143.881 35.919 144.059 35.7838C144.488 35.4597 144.438 34.9335 144.412 34.6979L144.236 32.4847C144.229 32.3956 144.232 32.3503 144.234 32.3302L145.713 30.548C145.884 30.3541 146.221 29.9613 146.062 29.4521C145.901 28.9354 145.376 28.8051 145.152 28.7495L142.903 28.1918L141.721 26.2179C141.612 26.0344 141.323 25.5471 140.759 25.5456C140.758 25.5456 140.757 25.5456 140.756 25.5456C140.194 25.5456 139.902 26.0312 139.792 26.2144C139.792 26.2146 139.792 26.2148 139.792 26.215L138.618 28.1738L138.608 28.1919L136.358 28.7499C136.134 28.8057 135.61 28.9366 135.45 29.4532C135.291 29.9623 135.64 30.3686 135.798 30.5484L137.279 32.329ZM139.047 29.6525C139.555 29.5269 139.738 29.2754 139.896 29.0066L140.755 27.5707L141.623 29.0188C141.78 29.282 141.962 29.5285 142.463 29.6523L144.133 30.0664L143.057 31.3624C142.704 31.7802 142.69 32.2434 142.717 32.6031L142.84 34.1464L141.43 33.5598C141.029 33.3906 140.489 33.3901 140.084 33.5584L138.672 34.147L138.797 32.6005C138.822 32.2748 138.814 31.7926 138.46 31.3675L137.378 30.0663L139.047 29.6525Z" fill="#FD8127"/>
<path d="M160.608 48.0601C160.768 47.8795 161.118 47.4745 160.96 46.9651C160.8 46.4467 160.273 46.3159 160.048 46.2601L157.803 45.7032L156.618 43.7249C156.508 43.5419 156.216 43.0561 155.654 43.0561C155.653 43.0561 155.652 43.0561 155.651 43.0561C155.089 43.0576 154.8 43.5415 154.69 43.7265L153.515 45.6842L153.503 45.7032L151.258 46.2601C151.033 46.3158 150.506 46.4466 150.346 46.965C150.189 47.4743 150.538 47.8794 150.698 48.0599L152.176 49.8407C152.178 49.8607 152.181 49.9051 152.174 49.9916L151.995 52.2076C151.971 52.4419 151.922 52.9723 152.352 53.2958C152.788 53.6232 153.299 53.417 153.525 53.3257L155.561 52.4772C155.602 52.4639 155.704 52.4639 155.74 52.4751L157.789 53.3287C157.918 53.3808 158.149 53.4743 158.407 53.4743C158.585 53.4743 158.776 53.4296 158.954 53.2957C159.384 52.9722 159.335 52.4419 159.312 52.2075L159.132 49.9951C159.125 49.9061 159.128 49.8608 159.13 49.8406L160.608 48.0601ZM157.954 48.8729C157.6 49.2906 157.586 49.7539 157.613 50.1147L157.738 51.6574L156.326 51.0687C155.923 50.9012 155.383 50.9013 154.98 51.0687L153.568 51.6574L153.693 50.1109C153.72 49.7539 153.706 49.2906 153.357 48.8785L152.277 47.5768L153.948 47.1623C154.452 47.0364 154.635 46.7856 154.792 46.5177L155.654 45.0805L156.484 46.4656L156.515 46.5177C156.671 46.7857 156.854 47.0365 157.359 47.1627L159.029 47.5768L157.954 48.8729Z" fill="#FD8127"/>
<path d="M152.874 32.0729C154.976 32.0729 156.685 30.3652 156.685 28.2662C156.685 26.1656 154.976 24.4566 152.874 24.4566C150.773 24.4566 149.064 26.1656 149.064 28.2662C149.064 30.3652 150.773 32.0729 152.874 32.0729ZM152.874 25.9801C154.136 25.9801 155.162 27.0056 155.162 28.2662C155.162 29.5252 154.136 30.5495 152.874 30.5495C151.613 30.5495 150.587 29.5252 150.587 28.2662C150.587 27.0056 151.613 25.9801 152.874 25.9801Z" fill="#FD8127"/>
</g>
<path d="M66.4223 112.168C65.6663 112.168 64.9616 112.047 64.3083 111.804C63.6643 111.552 63.1043 111.197 62.6283 110.74C62.1523 110.283 61.779 109.746 61.5083 109.13C61.247 108.514 61.1163 107.837 61.1163 107.1C61.1163 106.363 61.247 105.686 61.5083 105.07C61.779 104.454 62.1523 103.917 62.6283 103.46C63.1136 103.003 63.6783 102.653 64.3223 102.41C64.9663 102.158 65.671 102.032 66.4363 102.032C67.2856 102.032 68.051 102.181 68.7323 102.48C69.423 102.769 70.0016 103.199 70.4683 103.768L69.0123 105.112C68.6763 104.729 68.303 104.445 67.8923 104.258C67.4816 104.062 67.0336 103.964 66.5483 103.964C66.091 103.964 65.671 104.039 65.2883 104.188C64.9056 104.337 64.5743 104.552 64.2943 104.832C64.0143 105.112 63.795 105.443 63.6363 105.826C63.487 106.209 63.4123 106.633 63.4123 107.1C63.4123 107.567 63.487 107.991 63.6363 108.374C63.795 108.757 64.0143 109.088 64.2943 109.368C64.5743 109.648 64.9056 109.863 65.2883 110.012C65.671 110.161 66.091 110.236 66.5483 110.236C67.0336 110.236 67.4816 110.143 67.8923 109.956C68.303 109.76 68.6763 109.466 69.0123 109.074L70.4683 110.418C70.0016 110.987 69.423 111.421 68.7323 111.72C68.051 112.019 67.281 112.168 66.4223 112.168ZM77.1125 112L74.5925 108.43L76.3705 107.38L79.6885 112H77.1125ZM71.7785 112V104.468H73.9625V112H71.7785ZM73.3185 109.144V107.394H75.9505V109.144H73.3185ZM76.5805 108.486L74.5365 108.262L77.1825 104.468H79.5065L76.5805 108.486ZM80.7609 112V104.468H82.9309V108.948L86.5989 104.468H88.6009V112H86.4309V107.52L82.7769 112H80.7609ZM95.8804 111.02V106.26H93.4164L93.3744 107.226C93.3557 107.627 93.3324 108.01 93.3044 108.374C93.2764 108.738 93.2204 109.069 93.1364 109.368C93.0617 109.657 92.9497 109.905 92.8004 110.11C92.6511 110.306 92.4504 110.441 92.1984 110.516L90.0424 110.208C90.3131 110.208 90.5324 110.129 90.7004 109.97C90.8684 109.802 90.9991 109.573 91.0924 109.284C91.1857 108.985 91.2557 108.649 91.3024 108.276C91.3491 107.893 91.3817 107.492 91.4004 107.072L91.4984 104.468H98.0644V111.02H95.8804ZM89.7904 113.624V110.208H99.1424V113.624H97.1124V112H91.8204V113.624H89.7904ZM105.851 112L103.331 108.43L105.109 107.38L108.427 112H105.851ZM100.517 112V104.468H102.701V112H100.517ZM102.057 109.144V107.394H104.689V109.144H102.057ZM105.319 108.486L103.275 108.262L105.921 104.468H108.245L105.319 108.486ZM109.499 112V104.468H111.669V108.948L115.337 104.468H117.339V112H115.169V107.52L111.515 112H109.499ZM123.404 112V104.468H125.574V108.948L129.242 104.468H131.244V112H129.074V107.52L125.42 112H123.404ZM137.308 112V104.468H144.798V112H142.614V105.77L143.104 106.26H138.988L139.478 105.77V112H137.308ZM150.42 112.112C149.617 112.112 148.903 111.944 148.278 111.608C147.662 111.272 147.172 110.815 146.808 110.236C146.453 109.648 146.276 108.981 146.276 108.234C146.276 107.478 146.453 106.811 146.808 106.232C147.172 105.644 147.662 105.187 148.278 104.86C148.903 104.524 149.617 104.356 150.42 104.356C151.213 104.356 151.922 104.524 152.548 104.86C153.173 105.187 153.663 105.639 154.018 106.218C154.372 106.797 154.55 107.469 154.55 108.234C154.55 108.981 154.372 109.648 154.018 110.236C153.663 110.815 153.173 111.272 152.548 111.608C151.922 111.944 151.213 112.112 150.42 112.112ZM150.42 110.32C150.784 110.32 151.11 110.236 151.4 110.068C151.689 109.9 151.918 109.662 152.086 109.354C152.254 109.037 152.338 108.663 152.338 108.234C152.338 107.795 152.254 107.422 152.086 107.114C151.918 106.806 151.689 106.568 151.4 106.4C151.11 106.232 150.784 106.148 150.42 106.148C150.056 106.148 149.729 106.232 149.44 106.4C149.15 106.568 148.917 106.806 148.74 107.114C148.572 107.422 148.488 107.795 148.488 108.234C148.488 108.663 148.572 109.037 148.74 109.354C148.917 109.662 149.15 109.9 149.44 110.068C149.729 110.236 150.056 110.32 150.42 110.32ZM161.123 111.02V106.26H158.659L158.617 107.226C158.598 107.627 158.575 108.01 158.547 108.374C158.519 108.738 158.463 109.069 158.379 109.368C158.304 109.657 158.192 109.905 158.043 110.11C157.893 110.306 157.693 110.441 157.441 110.516L155.285 110.208C155.555 110.208 155.775 110.129 155.943 109.97C156.111 109.802 156.241 109.573 156.335 109.284C156.428 108.985 156.498 108.649 156.545 108.276C156.591 107.893 156.624 107.492 156.643 107.072L156.741 104.468H163.307V111.02H161.123ZM155.033 113.624V110.208H164.385V113.624H162.355V112H157.063V113.624H155.033ZM170.267 112V110.53L170.127 110.208V107.576C170.127 107.109 169.982 106.745 169.693 106.484C169.413 106.223 168.979 106.092 168.391 106.092C167.99 106.092 167.593 106.157 167.201 106.288C166.818 106.409 166.492 106.577 166.221 106.792L165.437 105.266C165.848 104.977 166.342 104.753 166.921 104.594C167.5 104.435 168.088 104.356 168.685 104.356C169.833 104.356 170.724 104.627 171.359 105.168C171.994 105.709 172.311 106.554 172.311 107.702V112H170.267ZM167.971 112.112C167.383 112.112 166.879 112.014 166.459 111.818C166.039 111.613 165.717 111.337 165.493 110.992C165.269 110.647 165.157 110.259 165.157 109.83C165.157 109.382 165.264 108.99 165.479 108.654C165.703 108.318 166.053 108.057 166.529 107.87C167.005 107.674 167.626 107.576 168.391 107.576H170.393V108.85H168.629C168.116 108.85 167.761 108.934 167.565 109.102C167.378 109.27 167.285 109.48 167.285 109.732C167.285 110.012 167.392 110.236 167.607 110.404C167.831 110.563 168.134 110.642 168.517 110.642C168.881 110.642 169.208 110.558 169.497 110.39C169.786 110.213 169.996 109.956 170.127 109.62L170.463 110.628C170.304 111.113 170.015 111.482 169.595 111.734C169.175 111.986 168.634 112.112 167.971 112.112ZM178.646 112.112C178.012 112.112 177.456 111.972 176.98 111.692C176.504 111.412 176.131 110.987 175.86 110.418C175.599 109.839 175.468 109.111 175.468 108.234C175.468 107.347 175.594 106.619 175.846 106.05C176.098 105.481 176.462 105.056 176.938 104.776C177.414 104.496 177.984 104.356 178.646 104.356C179.356 104.356 179.99 104.519 180.55 104.846C181.12 105.163 181.568 105.611 181.894 106.19C182.23 106.769 182.398 107.45 182.398 108.234C182.398 109.027 182.23 109.713 181.894 110.292C181.568 110.871 181.12 111.319 180.55 111.636C179.99 111.953 179.356 112.112 178.646 112.112ZM174.194 114.716V104.468H176.28V106.008L176.238 108.248L176.378 110.474V114.716H174.194ZM178.268 110.32C178.632 110.32 178.954 110.236 179.234 110.068C179.524 109.9 179.752 109.662 179.92 109.354C180.098 109.037 180.186 108.663 180.186 108.234C180.186 107.795 180.098 107.422 179.92 107.114C179.752 106.806 179.524 106.568 179.234 106.4C178.954 106.232 178.632 106.148 178.268 106.148C177.904 106.148 177.578 106.232 177.288 106.4C176.999 106.568 176.77 106.806 176.602 107.114C176.434 107.422 176.35 107.795 176.35 108.234C176.35 108.663 176.434 109.037 176.602 109.354C176.77 109.662 176.999 109.9 177.288 110.068C177.578 110.236 177.904 110.32 178.268 110.32ZM189.263 112L186.743 108.43L188.521 107.38L191.839 112H189.263ZM183.929 112V104.468H186.113V112H183.929ZM185.469 109.144V107.394H188.101V109.144H185.469ZM188.731 108.486L186.687 108.262L189.333 104.468H191.657L188.731 108.486ZM192.911 112V104.468H195.081V108.948L198.749 104.468H200.751V112H198.581V107.52L194.927 112H192.911ZM202.431 114.156L203.355 110.796L203.663 112.056C203.261 112.056 202.93 111.939 202.669 111.706C202.417 111.473 202.291 111.151 202.291 110.74C202.291 110.329 202.421 110.003 202.683 109.76C202.944 109.517 203.266 109.396 203.649 109.396C204.041 109.396 204.363 109.522 204.615 109.774C204.867 110.017 204.993 110.339 204.993 110.74C204.993 110.861 204.983 110.983 204.965 111.104C204.946 111.216 204.909 111.356 204.853 111.524C204.806 111.683 204.727 111.888 204.615 112.14L203.817 114.156H202.431ZM46.344 133.112C45.532 133.112 44.8086 132.949 44.174 132.622C43.5393 132.286 43.04 131.824 42.676 131.236C42.3213 130.648 42.144 129.981 42.144 129.234C42.144 128.478 42.3213 127.811 42.676 127.232C43.04 126.644 43.5393 126.187 44.174 125.86C44.8086 125.524 45.532 125.356 46.344 125.356C47.1373 125.356 47.828 125.524 48.416 125.86C49.004 126.187 49.438 126.658 49.718 127.274L48.024 128.184C47.828 127.829 47.5806 127.568 47.282 127.4C46.9926 127.232 46.6753 127.148 46.33 127.148C45.9566 127.148 45.6206 127.232 45.322 127.4C45.0233 127.568 44.7853 127.806 44.608 128.114C44.44 128.422 44.356 128.795 44.356 129.234C44.356 129.673 44.44 130.046 44.608 130.354C44.7853 130.662 45.0233 130.9 45.322 131.068C45.6206 131.236 45.9566 131.32 46.33 131.32C46.6753 131.32 46.9926 131.241 47.282 131.082C47.5806 130.914 47.828 130.648 48.024 130.284L49.718 131.208C49.438 131.815 49.004 132.286 48.416 132.622C47.828 132.949 47.1373 133.112 46.344 133.112ZM54.4774 133.112C53.6747 133.112 52.9607 132.944 52.3354 132.608C51.7194 132.272 51.2294 131.815 50.8654 131.236C50.5107 130.648 50.3334 129.981 50.3334 129.234C50.3334 128.478 50.5107 127.811 50.8654 127.232C51.2294 126.644 51.7194 126.187 52.3354 125.86C52.9607 125.524 53.6747 125.356 54.4774 125.356C55.2707 125.356 55.9801 125.524 56.6054 125.86C57.2307 126.187 57.7207 126.639 58.0754 127.218C58.4301 127.797 58.6074 128.469 58.6074 129.234C58.6074 129.981 58.4301 130.648 58.0754 131.236C57.7207 131.815 57.2307 132.272 56.6054 132.608C55.9801 132.944 55.2707 133.112 54.4774 133.112ZM54.4774 131.32C54.8414 131.32 55.1681 131.236 55.4574 131.068C55.7467 130.9 55.9754 130.662 56.1434 130.354C56.3114 130.037 56.3954 129.663 56.3954 129.234C56.3954 128.795 56.3114 128.422 56.1434 128.114C55.9754 127.806 55.7467 127.568 55.4574 127.4C55.1681 127.232 54.8414 127.148 54.4774 127.148C54.1134 127.148 53.7867 127.232 53.4974 127.4C53.2081 127.568 52.9747 127.806 52.7974 128.114C52.6294 128.422 52.5454 128.795 52.5454 129.234C52.5454 129.663 52.6294 130.037 52.7974 130.354C52.9747 130.662 53.2081 130.9 53.4974 131.068C53.7867 131.236 54.1134 131.32 54.4774 131.32ZM61.4461 133V126.756L61.9361 127.26H58.8981V125.468H66.1641V127.26H63.1261L63.6161 126.756V133H61.4461ZM71.7663 133.112C71.1317 133.112 70.5763 132.972 70.1003 132.692C69.6243 132.412 69.251 131.987 68.9803 131.418C68.719 130.839 68.5883 130.111 68.5883 129.234C68.5883 128.347 68.7143 127.619 68.9663 127.05C69.2183 126.481 69.5823 126.056 70.0583 125.776C70.5343 125.496 71.1037 125.356 71.7663 125.356C72.4757 125.356 73.1103 125.519 73.6703 125.846C74.2397 126.163 74.6877 126.611 75.0143 127.19C75.3503 127.769 75.5183 128.45 75.5183 129.234C75.5183 130.027 75.3503 130.713 75.0143 131.292C74.6877 131.871 74.2397 132.319 73.6703 132.636C73.1103 132.953 72.4757 133.112 71.7663 133.112ZM67.3143 135.716V125.468H69.4003V127.008L69.3583 129.248L69.4983 131.474V135.716H67.3143ZM71.3883 131.32C71.7523 131.32 72.0743 131.236 72.3543 131.068C72.6437 130.9 72.8723 130.662 73.0403 130.354C73.2177 130.037 73.3063 129.663 73.3063 129.234C73.3063 128.795 73.2177 128.422 73.0403 128.114C72.8723 127.806 72.6437 127.568 72.3543 127.4C72.0743 127.232 71.7523 127.148 71.3883 127.148C71.0243 127.148 70.6977 127.232 70.4083 127.4C70.119 127.568 69.8903 127.806 69.7223 128.114C69.5543 128.422 69.4703 128.795 69.4703 129.234C69.4703 129.663 69.5543 130.037 69.7223 130.354C69.8903 130.662 70.119 130.9 70.4083 131.068C70.6977 131.236 71.0243 131.32 71.3883 131.32ZM77.8659 135.828C77.4739 135.828 77.0866 135.767 76.7039 135.646C76.3213 135.525 76.0086 135.357 75.7659 135.142L76.5639 133.588C76.7319 133.737 76.9233 133.854 77.1379 133.938C77.3619 134.022 77.5813 134.064 77.7959 134.064C78.1039 134.064 78.3466 133.989 78.5239 133.84C78.7106 133.7 78.8786 133.462 79.0279 133.126L79.4199 132.202L79.5879 131.964L82.2899 125.468H84.3899L80.9879 133.462C80.7453 134.069 80.4653 134.545 80.1479 134.89C79.8399 135.235 79.4946 135.478 79.1119 135.618C78.7386 135.758 78.3233 135.828 77.8659 135.828ZM79.1539 133.294L75.7939 125.468H78.0479L80.6519 131.768L79.1539 133.294ZM90.0904 132.02V127.26H87.6264L87.5844 128.226C87.5657 128.627 87.5424 129.01 87.5144 129.374C87.4864 129.738 87.4304 130.069 87.3464 130.368C87.2717 130.657 87.1597 130.905 87.0104 131.11C86.861 131.306 86.6604 131.441 86.4084 131.516L84.2524 131.208C84.523 131.208 84.7424 131.129 84.9104 130.97C85.0784 130.802 85.209 130.573 85.3024 130.284C85.3957 129.985 85.4657 129.649 85.5124 129.276C85.559 128.893 85.5917 128.492 85.6104 128.072L85.7084 125.468H92.2744V132.02H90.0904ZM84.0004 134.624V131.208H93.3524V134.624H91.3224V133H86.0304V134.624H84.0004ZM94.7268 133V125.468H96.8968V128.408H100.173V125.468H102.357V133H100.173V130.186H96.8968V133H94.7268ZM104.447 133V125.468H106.617V129.948L110.285 125.468H112.287V133H110.117V128.52L106.463 133H104.447ZM119.721 133L117.201 129.43L118.979 128.38L122.297 133H119.721ZM114.387 133V125.468H116.571V133H114.387ZM115.927 130.144V128.394H118.559V130.144H115.927ZM119.189 129.486L117.145 129.262L119.791 125.468H122.115L119.189 129.486ZM127.741 133V131.53L127.601 131.208V128.576C127.601 128.109 127.456 127.745 127.167 127.484C126.887 127.223 126.453 127.092 125.865 127.092C125.463 127.092 125.067 127.157 124.675 127.288C124.292 127.409 123.965 127.577 123.695 127.792L122.911 126.266C123.321 125.977 123.816 125.753 124.395 125.594C124.973 125.435 125.561 125.356 126.159 125.356C127.307 125.356 128.198 125.627 128.833 126.168C129.467 126.709 129.785 127.554 129.785 128.702V133H127.741ZM125.445 133.112C124.857 133.112 124.353 133.014 123.933 132.818C123.513 132.613 123.191 132.337 122.967 131.992C122.743 131.647 122.631 131.259 122.631 130.83C122.631 130.382 122.738 129.99 122.953 129.654C123.177 129.318 123.527 129.057 124.003 128.87C124.479 128.674 125.099 128.576 125.865 128.576H127.867V129.85H126.103C125.589 129.85 125.235 129.934 125.039 130.102C124.852 130.27 124.759 130.48 124.759 130.732C124.759 131.012 124.866 131.236 125.081 131.404C125.305 131.563 125.608 131.642 125.991 131.642C126.355 131.642 126.681 131.558 126.971 131.39C127.26 131.213 127.47 130.956 127.601 130.62L127.937 131.628C127.778 132.113 127.489 132.482 127.069 132.734C126.649 132.986 126.107 133.112 125.445 133.112ZM131.682 133V125.468H133.964L136.806 130.62H135.896L138.934 125.468H140.978L141.006 133H139.032V127.708L139.368 127.932L136.778 132.272H135.854L133.25 127.778L133.656 127.68V133H131.682ZM147.063 133V125.468H149.233V129.948L152.901 125.468H154.903V133H152.733V128.52L149.079 133H147.063ZM160.967 133V125.468H163.137V129.948L166.805 125.468H168.807V133H166.637V128.52L162.983 133H160.967ZM169.898 133L173.272 128.576L173.23 129.78L169.996 125.468H172.446L174.49 128.282L173.566 128.31L175.68 125.468H178.004L174.756 129.738V128.562L178.116 133H175.638L173.496 130.004L174.406 130.13L172.278 133H169.898ZM188.336 132.02V127.26H185.872L185.83 128.226C185.812 128.627 185.788 129.01 185.76 129.374C185.732 129.738 185.676 130.069 185.592 130.368C185.518 130.657 185.406 130.905 185.256 131.11C185.107 131.306 184.906 131.441 184.654 131.516L182.498 131.208C182.769 131.208 182.988 131.129 183.156 130.97C183.324 130.802 183.455 130.573 183.548 130.284C183.642 129.985 183.712 129.649 183.758 129.276C183.805 128.893 183.838 128.492 183.856 128.072L183.954 125.468H190.52V132.02H188.336ZM182.246 134.624V131.208H191.598V134.624H189.568V133H184.276V134.624H182.246ZM196.655 133.112C195.796 133.112 195.04 132.944 194.387 132.608C193.743 132.272 193.244 131.815 192.889 131.236C192.534 130.648 192.357 129.981 192.357 129.234C192.357 128.478 192.53 127.811 192.875 127.232C193.23 126.644 193.71 126.187 194.317 125.86C194.924 125.524 195.61 125.356 196.375 125.356C197.112 125.356 197.775 125.515 198.363 125.832C198.96 126.14 199.432 126.588 199.777 127.176C200.122 127.755 200.295 128.45 200.295 129.262C200.295 129.346 200.29 129.444 200.281 129.556C200.272 129.659 200.262 129.757 200.253 129.85H194.135V128.576H199.105L198.265 128.954C198.265 128.562 198.186 128.221 198.027 127.932C197.868 127.643 197.649 127.419 197.369 127.26C197.089 127.092 196.762 127.008 196.389 127.008C196.016 127.008 195.684 127.092 195.395 127.26C195.115 127.419 194.896 127.647 194.737 127.946C194.578 128.235 194.499 128.581 194.499 128.982V129.318C194.499 129.729 194.588 130.093 194.765 130.41C194.952 130.718 195.208 130.956 195.535 131.124C195.871 131.283 196.263 131.362 196.711 131.362C197.112 131.362 197.462 131.301 197.761 131.18C198.069 131.059 198.349 130.877 198.601 130.634L199.763 131.894C199.418 132.286 198.984 132.589 198.461 132.804C197.938 133.009 197.336 133.112 196.655 133.112ZM203.319 133V126.756L203.809 127.26H200.771V125.468H208.037V127.26H204.999L205.489 126.756V133H203.319ZM213.879 133V130.494L214.187 130.844H212.101C211.018 130.844 210.169 130.62 209.553 130.172C208.937 129.724 208.629 129.08 208.629 128.24C208.629 127.344 208.951 126.658 209.595 126.182C210.248 125.706 211.126 125.468 212.227 125.468H215.825V133H213.879ZM208.517 133L210.519 130.13H212.745L210.841 133H208.517ZM213.879 129.822V126.686L214.187 127.246H212.269C211.821 127.246 211.471 127.33 211.219 127.498C210.976 127.666 210.855 127.937 210.855 128.31C210.855 129.029 211.317 129.388 212.241 129.388H214.187L213.879 129.822ZM217.924 133V125.468H220.206L223.048 130.62H222.138L225.176 125.468H227.22L227.248 133H225.274V127.708L225.61 127.932L223.02 132.272H222.096L219.492 127.778L219.898 127.68V133H217.924Z" fill="black" fill-opacity="0.7"/>
<path d="M52.1706 149.2H53.1926V159H52.1706V149.2ZM46.0386 159H45.0026V149.2H46.0386V159ZM52.2686 154.478H45.9266V153.568H52.2686V154.478ZM60.8266 159V157.376L60.7846 157.11V154.394C60.7846 153.769 60.6073 153.288 60.2526 152.952C59.9073 152.616 59.3893 152.448 58.6986 152.448C58.2226 152.448 57.77 152.527 57.3406 152.686C56.9113 152.845 56.5473 153.055 56.2486 153.316L55.8006 152.574C56.174 152.257 56.622 152.014 57.1446 151.846C57.6673 151.669 58.218 151.58 58.7966 151.58C59.7486 151.58 60.4813 151.818 60.9946 152.294C61.5173 152.761 61.7786 153.475 61.7786 154.436V159H60.8266ZM58.2926 159.07C57.742 159.07 57.2613 158.981 56.8506 158.804C56.4493 158.617 56.1413 158.365 55.9266 158.048C55.712 157.721 55.6046 157.348 55.6046 156.928C55.6046 156.545 55.6933 156.2 55.8706 155.892C56.0573 155.575 56.356 155.323 56.7666 155.136C57.1866 154.94 57.7466 154.842 58.4466 154.842H60.9806V155.584H58.4746C57.7653 155.584 57.2706 155.71 56.9906 155.962C56.72 156.214 56.5846 156.527 56.5846 156.9C56.5846 157.32 56.748 157.656 57.0746 157.908C57.4013 158.16 57.8586 158.286 58.4466 158.286C59.0066 158.286 59.4873 158.16 59.8886 157.908C60.2993 157.647 60.598 157.273 60.7846 156.788L61.0086 157.474C60.822 157.959 60.4953 158.347 60.0286 158.636C59.5713 158.925 58.9926 159.07 58.2926 159.07ZM69.2547 158.132L69.0307 158.398V151.65H70.0247V158.398L69.7587 158.132H73.8607L73.5947 158.398V151.65H74.5887V159H64.4247V151.65H65.4187V158.398L65.1667 158.132H69.2547ZM77.413 159V151.65H78.407V157.488L83.321 151.65H84.203V159H83.209V153.148L78.309 159H77.413ZM93.7958 159.07C93.0678 159.07 92.4144 158.911 91.8358 158.594C91.2664 158.267 90.8184 157.824 90.4918 157.264C90.1651 156.695 90.0018 156.046 90.0018 155.318C90.0018 154.581 90.1651 153.932 90.4918 153.372C90.8184 152.812 91.2664 152.373 91.8358 152.056C92.4144 151.739 93.0678 151.58 93.7958 151.58C94.4211 151.58 94.9858 151.701 95.4898 151.944C95.9938 152.187 96.3904 152.551 96.6798 153.036L95.9378 153.54C95.6858 153.167 95.3731 152.891 94.9998 152.714C94.6264 152.537 94.2204 152.448 93.7818 152.448C93.2591 152.448 92.7878 152.569 92.3678 152.812C91.9478 153.045 91.6164 153.377 91.3738 153.806C91.1311 154.235 91.0098 154.739 91.0098 155.318C91.0098 155.897 91.1311 156.401 91.3738 156.83C91.6164 157.259 91.9478 157.595 92.3678 157.838C92.7878 158.071 93.2591 158.188 93.7818 158.188C94.2204 158.188 94.6264 158.099 94.9998 157.922C95.3731 157.745 95.6858 157.474 95.9378 157.11L96.6798 157.614C96.3904 158.09 95.9938 158.454 95.4898 158.706C94.9858 158.949 94.4211 159.07 93.7958 159.07ZM101.505 159.07C100.796 159.07 100.157 158.911 99.5874 158.594C99.0274 158.267 98.584 157.824 98.2574 157.264C97.9307 156.695 97.7674 156.046 97.7674 155.318C97.7674 154.581 97.9307 153.932 98.2574 153.372C98.584 152.812 99.0274 152.373 99.5874 152.056C100.147 151.739 100.787 151.58 101.505 151.58C102.233 151.58 102.877 151.739 103.437 152.056C104.007 152.373 104.45 152.812 104.767 153.372C105.094 153.932 105.257 154.581 105.257 155.318C105.257 156.046 105.094 156.695 104.767 157.264C104.45 157.824 104.007 158.267 103.437 158.594C102.868 158.911 102.224 159.07 101.505 159.07ZM101.505 158.188C102.037 158.188 102.509 158.071 102.919 157.838C103.33 157.595 103.652 157.259 103.885 156.83C104.128 156.391 104.249 155.887 104.249 155.318C104.249 154.739 104.128 154.235 103.885 153.806C103.652 153.377 103.33 153.045 102.919 152.812C102.509 152.569 102.042 152.448 101.519 152.448C100.997 152.448 100.53 152.569 100.119 152.812C99.7087 153.045 99.382 153.377 99.1394 153.806C98.8967 154.235 98.7754 154.739 98.7754 155.318C98.7754 155.887 98.8967 156.391 99.1394 156.83C99.382 157.259 99.7087 157.595 100.119 157.838C100.53 158.071 100.992 158.188 101.505 158.188ZM108.508 159V152.252L108.76 152.518H105.722V151.65H112.288V152.518H109.25L109.502 152.252V159H108.508ZM117.52 159.07C116.885 159.07 116.311 158.925 115.798 158.636C115.284 158.337 114.874 157.913 114.566 157.362C114.267 156.802 114.118 156.121 114.118 155.318C114.118 154.515 114.267 153.839 114.566 153.288C114.864 152.728 115.27 152.303 115.784 152.014C116.297 151.725 116.876 151.58 117.52 151.58C118.22 151.58 118.845 151.739 119.396 152.056C119.956 152.364 120.394 152.803 120.712 153.372C121.029 153.932 121.188 154.581 121.188 155.318C121.188 156.065 121.029 156.718 120.712 157.278C120.394 157.838 119.956 158.277 119.396 158.594C118.845 158.911 118.22 159.07 117.52 159.07ZM113.726 161.716V151.65H114.678V153.862L114.58 155.332L114.72 156.816V161.716H113.726ZM117.45 158.188C117.972 158.188 118.439 158.071 118.85 157.838C119.26 157.595 119.587 157.259 119.83 156.83C120.072 156.391 120.194 155.887 120.194 155.318C120.194 154.749 120.072 154.249 119.83 153.82C119.587 153.391 119.26 153.055 118.85 152.812C118.439 152.569 117.972 152.448 117.45 152.448C116.927 152.448 116.456 152.569 116.036 152.812C115.625 153.055 115.298 153.391 115.056 153.82C114.822 154.249 114.706 154.749 114.706 155.318C114.706 155.887 114.822 156.391 115.056 156.83C115.298 157.259 115.625 157.595 116.036 157.838C116.456 158.071 116.927 158.188 117.45 158.188ZM123.244 161.786C122.899 161.786 122.567 161.73 122.25 161.618C121.942 161.506 121.676 161.338 121.452 161.114L121.914 160.372C122.101 160.549 122.301 160.685 122.516 160.778C122.74 160.881 122.987 160.932 123.258 160.932C123.585 160.932 123.865 160.839 124.098 160.652C124.341 160.475 124.569 160.157 124.784 159.7L125.26 158.622L125.372 158.468L128.396 151.65H129.376L125.694 159.882C125.489 160.358 125.26 160.736 125.008 161.016C124.765 161.296 124.499 161.492 124.21 161.604C123.921 161.725 123.599 161.786 123.244 161.786ZM125.204 159.21L121.816 151.65H122.852L125.848 158.398L125.204 159.21ZM135.65 158.524V152.518H132.108L132.024 154.156C132.006 154.651 131.973 155.136 131.926 155.612C131.889 156.088 131.819 156.527 131.716 156.928C131.623 157.32 131.488 157.642 131.31 157.894C131.133 158.137 130.904 158.277 130.624 158.314L129.63 158.132C129.92 158.141 130.158 158.039 130.344 157.824C130.531 157.6 130.676 157.297 130.778 156.914C130.881 156.531 130.956 156.097 131.002 155.612C131.049 155.117 131.086 154.613 131.114 154.1L131.212 151.65H136.644V158.524H135.65ZM129.322 160.778V158.132H137.792V160.778H136.854V159H130.26V160.778H129.322ZM139.729 159V151.65H140.723V154.898H145.357V151.65H146.351V159H145.357V155.752H140.723V159H139.729ZM149.177 159V151.65H150.171V157.488L155.085 151.65H155.967V159H154.973V153.148L150.073 159H149.177ZM164.205 159L161.181 155.36L162.007 154.87L165.381 159H164.205ZM158.815 159V151.65H159.809V159H158.815ZM159.501 155.724V154.87H161.867V155.724H159.501ZM162.091 155.43L161.167 155.29L164.093 151.65H165.171L162.091 155.43ZM166.95 159V151.65H167.944V157.488L172.858 151.65H173.74V159H172.746V153.148L167.846 159H166.95ZM180.253 159V151.65H181.247V157.488L186.161 151.65H187.043V159H186.049V153.148L181.149 159H180.253ZM189.892 159V151.65H190.9L194.232 157.292H193.812L197.2 151.65H198.124V159H197.214V152.784L197.396 152.868L194.232 158.104H193.784L190.592 152.812L190.802 152.77V159H189.892ZM204.102 159.07C203.337 159.07 202.665 158.911 202.086 158.594C201.507 158.267 201.055 157.824 200.728 157.264C200.401 156.695 200.238 156.046 200.238 155.318C200.238 154.59 200.392 153.946 200.7 153.386C201.017 152.826 201.447 152.387 201.988 152.07C202.539 151.743 203.155 151.58 203.836 151.58C204.527 151.58 205.138 151.739 205.67 152.056C206.211 152.364 206.636 152.803 206.944 153.372C207.252 153.932 207.406 154.581 207.406 155.318C207.406 155.365 207.401 155.416 207.392 155.472C207.392 155.519 207.392 155.57 207.392 155.626H200.994V154.884H206.86L206.468 155.178C206.468 154.646 206.351 154.175 206.118 153.764C205.894 153.344 205.586 153.017 205.194 152.784C204.802 152.551 204.349 152.434 203.836 152.434C203.332 152.434 202.879 152.551 202.478 152.784C202.077 153.017 201.764 153.344 201.54 153.764C201.316 154.184 201.204 154.665 201.204 155.206V155.36C201.204 155.92 201.325 156.415 201.568 156.844C201.82 157.264 202.165 157.595 202.604 157.838C203.052 158.071 203.561 158.188 204.13 158.188C204.578 158.188 204.993 158.109 205.376 157.95C205.768 157.791 206.104 157.549 206.384 157.222L206.944 157.866C206.617 158.258 206.207 158.557 205.712 158.762C205.227 158.967 204.69 159.07 204.102 159.07ZM209.606 159V151.65H210.6V154.814H212.84V155.724H210.6V159H209.606ZM215.934 159.07C215.234 159.07 214.604 158.911 214.044 158.594C213.494 158.267 213.06 157.824 212.742 157.264C212.425 156.695 212.266 156.046 212.266 155.318C212.266 154.581 212.425 153.932 212.742 153.372C213.06 152.812 213.494 152.373 214.044 152.056C214.604 151.739 215.234 151.58 215.934 151.58C216.634 151.58 217.26 151.739 217.81 152.056C218.361 152.373 218.795 152.812 219.112 153.372C219.43 153.932 219.588 154.581 219.588 155.318C219.588 156.046 219.43 156.695 219.112 157.264C218.795 157.824 218.361 158.267 217.81 158.594C217.26 158.911 216.634 159.07 215.934 159.07ZM215.934 158.202C216.448 158.202 216.905 158.081 217.306 157.838C217.708 157.595 218.025 157.259 218.258 156.83C218.492 156.391 218.608 155.887 218.608 155.318C218.608 154.739 218.492 154.235 218.258 153.806C218.025 153.377 217.708 153.045 217.306 152.812C216.905 152.569 216.448 152.448 215.934 152.448C215.43 152.448 214.973 152.569 214.562 152.812C214.161 153.045 213.844 153.377 213.61 153.806C213.377 154.235 213.26 154.739 213.26 155.318C213.26 155.887 213.377 156.391 213.61 156.83C213.844 157.259 214.161 157.595 214.562 157.838C214.973 158.081 215.43 158.202 215.934 158.202ZM222.846 159V152.252L223.098 152.518H220.06V151.65H226.626V152.518H223.588L223.84 152.252V159H222.846ZM39.3735 180.07C38.6642 180.07 38.0249 179.911 37.4555 179.594C36.8955 179.267 36.4522 178.824 36.1255 178.264C35.7989 177.695 35.6355 177.046 35.6355 176.318C35.6355 175.581 35.7989 174.932 36.1255 174.372C36.4522 173.812 36.8955 173.373 37.4555 173.056C38.0155 172.739 38.6549 172.58 39.3735 172.58C40.1015 172.58 40.7455 172.739 41.3055 173.056C41.8749 173.373 42.3182 173.812 42.6355 174.372C42.9622 174.932 43.1255 175.581 43.1255 176.318C43.1255 177.046 42.9622 177.695 42.6355 178.264C42.3182 178.824 41.8749 179.267 41.3055 179.594C40.7362 179.911 40.0922 180.07 39.3735 180.07ZM39.3735 179.188C39.9055 179.188 40.3769 179.071 40.7875 178.838C41.1982 178.595 41.5202 178.259 41.7535 177.83C41.9962 177.391 42.1175 176.887 42.1175 176.318C42.1175 175.739 41.9962 175.235 41.7535 174.806C41.5202 174.377 41.1982 174.045 40.7875 173.812C40.3769 173.569 39.9102 173.448 39.3875 173.448C38.8649 173.448 38.3982 173.569 37.9875 173.812C37.5769 174.045 37.2502 174.377 37.0075 174.806C36.7649 175.235 36.6435 175.739 36.6435 176.318C36.6435 176.887 36.7649 177.391 37.0075 177.83C37.2502 178.259 37.5769 178.595 37.9875 178.838C38.3982 179.071 38.8602 179.188 39.3735 179.188ZM48.3299 180.07C47.6019 180.07 46.9486 179.911 46.3699 179.594C45.8006 179.267 45.3526 178.824 45.0259 178.264C44.6993 177.695 44.5359 177.046 44.5359 176.318C44.5359 175.581 44.6993 174.932 45.0259 174.372C45.3526 173.812 45.8006 173.373 46.3699 173.056C46.9486 172.739 47.6019 172.58 48.3299 172.58C48.9553 172.58 49.5199 172.701 50.0239 172.944C50.5279 173.187 50.9246 173.551 51.2139 174.036L50.4719 174.54C50.2199 174.167 49.9073 173.891 49.5339 173.714C49.1606 173.537 48.7546 173.448 48.3159 173.448C47.7933 173.448 47.3219 173.569 46.9019 173.812C46.4819 174.045 46.1506 174.377 45.9079 174.806C45.6653 175.235 45.5439 175.739 45.5439 176.318C45.5439 176.897 45.6653 177.401 45.9079 177.83C46.1506 178.259 46.4819 178.595 46.9019 178.838C47.3219 179.071 47.7933 179.188 48.3159 179.188C48.7546 179.188 49.1606 179.099 49.5339 178.922C49.9073 178.745 50.2199 178.474 50.4719 178.11L51.2139 178.614C50.9246 179.09 50.5279 179.454 50.0239 179.706C49.5199 179.949 48.9553 180.07 48.3299 180.07ZM56.0396 180.07C55.3302 180.07 54.6909 179.911 54.1216 179.594C53.5616 179.267 53.1182 178.824 52.7916 178.264C52.4649 177.695 52.3016 177.046 52.3016 176.318C52.3016 175.581 52.4649 174.932 52.7916 174.372C53.1182 173.812 53.5616 173.373 54.1216 173.056C54.6816 172.739 55.3209 172.58 56.0396 172.58C56.7676 172.58 57.4116 172.739 57.9716 173.056C58.5409 173.373 58.9842 173.812 59.3016 174.372C59.6282 174.932 59.7916 175.581 59.7916 176.318C59.7916 177.046 59.6282 177.695 59.3016 178.264C58.9842 178.824 58.5409 179.267 57.9716 179.594C57.4022 179.911 56.7582 180.07 56.0396 180.07ZM56.0396 179.188C56.5716 179.188 57.0429 179.071 57.4536 178.838C57.8642 178.595 58.1862 178.259 58.4196 177.83C58.6622 177.391 58.7836 176.887 58.7836 176.318C58.7836 175.739 58.6622 175.235 58.4196 174.806C58.1862 174.377 57.8642 174.045 57.4536 173.812C57.0429 173.569 56.5762 173.448 56.0536 173.448C55.5309 173.448 55.0642 173.569 54.6536 173.812C54.2429 174.045 53.9162 174.377 53.6736 174.806C53.4309 175.235 53.3096 175.739 53.3096 176.318C53.3096 176.887 53.4309 177.391 53.6736 177.83C53.9162 178.259 54.2429 178.595 54.6536 178.838C55.0642 179.071 55.5262 179.188 56.0396 179.188ZM65.22 180.084C64.6226 180.084 64.0906 179.986 63.624 179.79C63.1666 179.594 62.7746 179.295 62.448 178.894C62.1213 178.493 61.874 177.998 61.706 177.41C61.538 176.813 61.454 176.122 61.454 175.338C61.454 174.638 61.5193 174.027 61.65 173.504C61.7806 172.972 61.9626 172.515 62.196 172.132C62.4293 171.749 62.7 171.427 63.008 171.166C63.3253 170.895 63.666 170.681 64.03 170.522C64.4033 170.354 64.786 170.228 65.178 170.144L68.482 169.374L68.65 170.298L65.542 170.998C65.346 171.045 65.108 171.11 64.828 171.194C64.5573 171.278 64.2773 171.404 63.988 171.572C63.708 171.74 63.4466 171.973 63.204 172.272C62.9613 172.571 62.7653 172.958 62.616 173.434C62.476 173.901 62.406 174.484 62.406 175.184C62.406 175.333 62.4106 175.455 62.42 175.548C62.4293 175.632 62.4386 175.725 62.448 175.828C62.4666 175.921 62.4806 176.061 62.49 176.248L62.056 175.884C62.1586 175.315 62.3686 174.82 62.686 174.4C63.0033 173.971 63.4 173.639 63.876 173.406C64.3613 173.163 64.898 173.042 65.486 173.042C66.1673 173.042 66.774 173.191 67.306 173.49C67.838 173.779 68.2533 174.185 68.552 174.708C68.86 175.231 69.014 175.837 69.014 176.528C69.014 177.209 68.8553 177.821 68.538 178.362C68.23 178.903 67.7913 179.328 67.222 179.636C66.6526 179.935 65.9853 180.084 65.22 180.084ZM65.332 179.258C65.8546 179.258 66.3166 179.141 66.718 178.908C67.1193 178.665 67.432 178.339 67.656 177.928C67.8893 177.517 68.006 177.055 68.006 176.542C68.006 176.038 67.8893 175.59 67.656 175.198C67.432 174.806 67.1193 174.498 66.718 174.274C66.3166 174.041 65.85 173.924 65.318 173.924C64.7953 173.924 64.3333 174.036 63.932 174.26C63.5306 174.475 63.2133 174.778 62.98 175.17C62.756 175.562 62.644 176.015 62.644 176.528C62.644 177.041 62.756 177.503 62.98 177.914C63.2133 178.325 63.5306 178.651 63.932 178.894C64.3426 179.137 64.8093 179.258 65.332 179.258ZM78.3125 180V172.65H79.3065V180H78.3125ZM74.2385 175.24C75.1625 175.249 75.8671 175.455 76.3525 175.856C76.8378 176.257 77.0805 176.836 77.0805 177.592C77.0805 178.376 76.8191 178.978 76.2965 179.398C75.7738 179.818 75.0271 180.023 74.0565 180.014L71.1445 180V172.65H72.1385V175.212L74.2385 175.24ZM73.9865 179.258C74.6771 179.267 75.1951 179.132 75.5405 178.852C75.8951 178.563 76.0725 178.143 76.0725 177.592C76.0725 177.041 75.8998 176.64 75.5545 176.388C75.2091 176.127 74.6865 175.991 73.9865 175.982L72.1385 175.954V179.23L73.9865 179.258ZM85.2867 180.07C84.5213 180.07 83.8493 179.911 83.2707 179.594C82.692 179.267 82.2393 178.824 81.9127 178.264C81.586 177.695 81.4227 177.046 81.4227 176.318C81.4227 175.59 81.5767 174.946 81.8847 174.386C82.202 173.826 82.6313 173.387 83.1727 173.07C83.7233 172.743 84.3393 172.58 85.0207 172.58C85.7113 172.58 86.3227 172.739 86.8547 173.056C87.396 173.364 87.8207 173.803 88.1287 174.372C88.4367 174.932 88.5907 175.581 88.5907 176.318C88.5907 176.365 88.586 176.416 88.5767 176.472C88.5767 176.519 88.5767 176.57 88.5767 176.626H82.1787V175.884H88.0447L87.6527 176.178C87.6527 175.646 87.536 175.175 87.3027 174.764C87.0787 174.344 86.7707 174.017 86.3787 173.784C85.9867 173.551 85.534 173.434 85.0207 173.434C84.5167 173.434 84.064 173.551 83.6627 173.784C83.2613 174.017 82.9487 174.344 82.7247 174.764C82.5007 175.184 82.3887 175.665 82.3887 176.206V176.36C82.3887 176.92 82.51 177.415 82.7527 177.844C83.0047 178.264 83.35 178.595 83.7887 178.838C84.2367 179.071 84.7453 179.188 85.3147 179.188C85.7627 179.188 86.178 179.109 86.5607 178.95C86.9527 178.791 87.2887 178.549 87.5687 178.222L88.1287 178.866C87.802 179.258 87.3913 179.557 86.8967 179.762C86.4113 179.967 85.8747 180.07 85.2867 180.07ZM94.455 180V172.65H101.063V180H100.069V173.252L100.321 173.518H95.197L95.449 173.252V180H94.455ZM107.683 180.07C107.048 180.07 106.474 179.925 105.961 179.636C105.447 179.337 105.037 178.913 104.729 178.362C104.43 177.802 104.281 177.121 104.281 176.318C104.281 175.515 104.43 174.839 104.729 174.288C105.027 173.728 105.433 173.303 105.947 173.014C106.46 172.725 107.039 172.58 107.683 172.58C108.383 172.58 109.008 172.739 109.559 173.056C110.119 173.364 110.557 173.803 110.875 174.372C111.192 174.932 111.351 175.581 111.351 176.318C111.351 177.065 111.192 177.718 110.875 178.278C110.557 178.838 110.119 179.277 109.559 179.594C109.008 179.911 108.383 180.07 107.683 180.07ZM103.889 182.716V172.65H104.841V174.862L104.743 176.332L104.883 177.816V182.716H103.889ZM107.613 179.188C108.135 179.188 108.602 179.071 109.013 178.838C109.423 178.595 109.75 178.259 109.993 177.83C110.235 177.391 110.357 176.887 110.357 176.318C110.357 175.749 110.235 175.249 109.993 174.82C109.75 174.391 109.423 174.055 109.013 173.812C108.602 173.569 108.135 173.448 107.613 173.448C107.09 173.448 106.619 173.569 106.199 173.812C105.788 174.055 105.461 174.391 105.219 174.82C104.985 175.249 104.869 175.749 104.869 176.318C104.869 176.887 104.985 177.391 105.219 177.83C105.461 178.259 105.788 178.595 106.199 178.838C106.619 179.071 107.09 179.188 107.613 179.188ZM113.486 180V172.65H114.48V178.488L119.394 172.65H120.276V180H119.282V174.148L114.382 180H113.486ZM123.125 180V172.65H126.373C127.204 172.65 127.857 172.809 128.333 173.126C128.818 173.443 129.061 173.91 129.061 174.526C129.061 175.123 128.832 175.585 128.375 175.912C127.918 176.229 127.316 176.388 126.569 176.388L126.765 176.094C127.642 176.094 128.286 176.257 128.697 176.584C129.108 176.911 129.313 177.382 129.313 177.998C129.313 178.633 129.08 179.127 128.613 179.482C128.156 179.827 127.442 180 126.471 180H123.125ZM124.091 179.216H126.429C127.054 179.216 127.526 179.118 127.843 178.922C128.17 178.717 128.333 178.39 128.333 177.942C128.333 177.494 128.188 177.167 127.899 176.962C127.61 176.757 127.152 176.654 126.527 176.654H124.091V179.216ZM124.091 175.912H126.303C126.872 175.912 127.306 175.805 127.605 175.59C127.913 175.375 128.067 175.063 128.067 174.652C128.067 174.241 127.913 173.933 127.605 173.728C127.306 173.523 126.872 173.42 126.303 173.42H124.091V175.912ZM131.643 180V172.65H132.637V178.488L137.551 172.65H138.433V180H137.439V174.148L132.539 180H131.643ZM139.937 179.986L140.007 179.132C140.073 179.141 140.133 179.155 140.189 179.174C140.255 179.183 140.311 179.188 140.357 179.188C140.656 179.188 140.894 179.076 141.071 178.852C141.258 178.628 141.398 178.329 141.491 177.956C141.585 177.583 141.65 177.163 141.687 176.696C141.725 176.22 141.757 175.744 141.785 175.268L141.911 172.65H147.301V180H146.307V173.224L146.559 173.518H142.555L142.793 173.21L142.681 175.338C142.653 175.973 142.602 176.579 142.527 177.158C142.462 177.737 142.355 178.245 142.205 178.684C142.065 179.123 141.869 179.468 141.617 179.72C141.365 179.963 141.043 180.084 140.651 180.084C140.539 180.084 140.423 180.075 140.301 180.056C140.189 180.037 140.068 180.014 139.937 179.986ZM153.277 180.07C152.512 180.07 151.84 179.911 151.261 179.594C150.682 179.267 150.23 178.824 149.903 178.264C149.576 177.695 149.413 177.046 149.413 176.318C149.413 175.59 149.567 174.946 149.875 174.386C150.192 173.826 150.622 173.387 151.163 173.07C151.714 172.743 152.33 172.58 153.011 172.58C153.702 172.58 154.313 172.739 154.845 173.056C155.386 173.364 155.811 173.803 156.119 174.372C156.427 174.932 156.581 175.581 156.581 176.318C156.581 176.365 156.576 176.416 156.567 176.472C156.567 176.519 156.567 176.57 156.567 176.626H150.169V175.884H156.035L155.643 176.178C155.643 175.646 155.526 175.175 155.293 174.764C155.069 174.344 154.761 174.017 154.369 173.784C153.977 173.551 153.524 173.434 153.011 173.434C152.507 173.434 152.054 173.551 151.653 173.784C151.252 174.017 150.939 174.344 150.715 174.764C150.491 175.184 150.379 175.665 150.379 176.206V176.36C150.379 176.92 150.5 177.415 150.743 177.844C150.995 178.264 151.34 178.595 151.779 178.838C152.227 179.071 152.736 179.188 153.305 179.188C153.753 179.188 154.168 179.109 154.551 178.95C154.943 178.791 155.279 178.549 155.559 178.222L156.119 178.866C155.792 179.258 155.382 179.557 154.887 179.762C154.402 179.967 153.865 180.07 153.277 180.07ZM158.781 180V172.65H163.989V173.518H159.523L159.775 173.266V180H158.781ZM165.426 180V172.65H166.42V178.488L171.334 172.65H172.216V180H171.222V174.148L166.322 180H165.426ZM175.064 180V172.65H176.058V178.488L180.972 172.65H181.854V180H180.86V174.148L175.96 180H175.064ZM188.367 180V172.65H191.615C192.446 172.65 193.099 172.809 193.575 173.126C194.06 173.443 194.303 173.91 194.303 174.526C194.303 175.123 194.074 175.585 193.617 175.912C193.16 176.229 192.558 176.388 191.811 176.388L192.007 176.094C192.884 176.094 193.528 176.257 193.939 176.584C194.35 176.911 194.555 177.382 194.555 177.998C194.555 178.633 194.322 179.127 193.855 179.482C193.398 179.827 192.684 180 191.713 180H188.367ZM189.333 179.216H191.671C192.296 179.216 192.768 179.118 193.085 178.922C193.412 178.717 193.575 178.39 193.575 177.942C193.575 177.494 193.43 177.167 193.141 176.962C192.852 176.757 192.394 176.654 191.769 176.654H189.333V179.216ZM189.333 175.912H191.545C192.114 175.912 192.548 175.805 192.847 175.59C193.155 175.375 193.309 175.063 193.309 174.652C193.309 174.241 193.155 173.933 192.847 173.728C192.548 173.523 192.114 173.42 191.545 173.42H189.333V175.912ZM200.549 180V172.65H203.797C204.627 172.65 205.281 172.809 205.757 173.126C206.242 173.443 206.485 173.91 206.485 174.526C206.485 175.123 206.256 175.585 205.799 175.912C205.341 176.229 204.739 176.388 203.993 176.388L204.189 176.094C205.066 176.094 205.71 176.257 206.121 176.584C206.531 176.911 206.737 177.382 206.737 177.998C206.737 178.633 206.503 179.127 206.037 179.482C205.579 179.827 204.865 180 203.895 180H200.549ZM201.515 179.216H203.853C204.478 179.216 204.949 179.118 205.267 178.922C205.593 178.717 205.757 178.39 205.757 177.942C205.757 177.494 205.612 177.167 205.323 176.962C205.033 176.757 204.576 176.654 203.951 176.654H201.515V179.216ZM201.515 175.912H203.727C204.296 175.912 204.73 175.805 205.029 175.59C205.337 175.375 205.491 175.063 205.491 174.652C205.491 174.241 205.337 173.933 205.029 173.728C204.73 173.523 204.296 173.42 203.727 173.42H201.515V175.912ZM209.066 180V172.65H210.06V178.488L214.974 172.65H215.856V180H214.862V174.148L209.962 180H209.066ZM223.745 179.524V173.518H220.203L220.119 175.156C220.1 175.651 220.068 176.136 220.021 176.612C219.984 177.088 219.914 177.527 219.811 177.928C219.718 178.32 219.582 178.642 219.405 178.894C219.228 179.137 218.999 179.277 218.719 179.314L217.725 179.132C218.014 179.141 218.252 179.039 218.439 178.824C218.626 178.6 218.77 178.297 218.873 177.914C218.976 177.531 219.05 177.097 219.097 176.612C219.144 176.117 219.181 175.613 219.209 175.1L219.307 172.65H224.739V179.524H223.745ZM217.417 181.778V179.132H225.887V181.778H224.949V180H218.355V181.778H217.417ZM230.974 180.07C230.209 180.07 229.537 179.911 228.958 179.594C228.379 179.267 227.927 178.824 227.6 178.264C227.273 177.695 227.11 177.046 227.11 176.318C227.11 175.59 227.264 174.946 227.572 174.386C227.889 173.826 228.319 173.387 228.86 173.07C229.411 172.743 230.027 172.58 230.708 172.58C231.399 172.58 232.01 172.739 232.542 173.056C233.083 173.364 233.508 173.803 233.816 174.372C234.124 174.932 234.278 175.581 234.278 176.318C234.278 176.365 234.273 176.416 234.264 176.472C234.264 176.519 234.264 176.57 234.264 176.626H227.866V175.884H233.732L233.34 176.178C233.34 175.646 233.223 175.175 232.99 174.764C232.766 174.344 232.458 174.017 232.066 173.784C231.674 173.551 231.221 173.434 230.708 173.434C230.204 173.434 229.751 173.551 229.35 173.784C228.949 174.017 228.636 174.344 228.412 174.764C228.188 175.184 228.076 175.665 228.076 176.206V176.36C228.076 176.92 228.197 177.415 228.44 177.844C228.692 178.264 229.037 178.595 229.476 178.838C229.924 179.071 230.433 179.188 231.002 179.188C231.45 179.188 231.865 179.109 232.248 178.95C232.64 178.791 232.976 178.549 233.256 178.222L233.816 178.866C233.489 179.258 233.079 179.557 232.584 179.762C232.099 179.967 231.562 180.07 230.974 180.07ZM69.87 201.07C69.142 201.07 68.4886 200.911 67.91 200.594C67.3406 200.267 66.8926 199.824 66.566 199.264C66.2393 198.695 66.076 198.046 66.076 197.318C66.076 196.581 66.2393 195.932 66.566 195.372C66.8926 194.812 67.3406 194.373 67.91 194.056C68.4886 193.739 69.142 193.58 69.87 193.58C70.4953 193.58 71.06 193.701 71.564 193.944C72.068 194.187 72.4646 194.551 72.754 195.036L72.012 195.54C71.76 195.167 71.4473 194.891 71.074 194.714C70.7006 194.537 70.2946 194.448 69.856 194.448C69.3333 194.448 68.862 194.569 68.442 194.812C68.022 195.045 67.6906 195.377 67.448 195.806C67.2053 196.235 67.084 196.739 67.084 197.318C67.084 197.897 67.2053 198.401 67.448 198.83C67.6906 199.259 68.022 199.595 68.442 199.838C68.862 200.071 69.3333 200.188 69.856 200.188C70.2946 200.188 70.7006 200.099 71.074 199.922C71.4473 199.745 71.76 199.474 72.012 199.11L72.754 199.614C72.4646 200.09 72.068 200.454 71.564 200.706C71.06 200.949 70.4953 201.07 69.87 201.07ZM80.0686 201L77.0446 197.36L77.8706 196.87L81.2446 201H80.0686ZM74.6786 201V193.65H75.6726V201H74.6786ZM75.3646 197.724V196.87H77.7306V197.724H75.3646ZM77.9546 197.43L77.0306 197.29L79.9566 193.65H81.0346L77.9546 197.43ZM82.8134 201V193.65H83.8074V199.488L88.7214 193.65H89.6034V201H88.6094V195.148L83.7094 201H82.8134ZM97.4921 200.524V194.518H93.9501L93.8661 196.156C93.8474 196.651 93.8148 197.136 93.7681 197.612C93.7308 198.088 93.6608 198.527 93.5581 198.928C93.4648 199.32 93.3294 199.642 93.1521 199.894C92.9748 200.137 92.7461 200.277 92.4661 200.314L91.4721 200.132C91.7614 200.141 91.9994 200.039 92.1861 199.824C92.3728 199.6 92.5174 199.297 92.6201 198.914C92.7228 198.531 92.7974 198.097 92.8441 197.612C92.8908 197.117 92.9281 196.613 92.9561 196.1L93.0541 193.65H98.4861V200.524H97.4921ZM91.1641 202.778V200.132H99.6341V202.778H98.6961V201H92.1021V202.778H91.1641ZM104.595 201.07C103.886 201.07 103.247 200.911 102.677 200.594C102.117 200.267 101.674 199.824 101.347 199.264C101.021 198.695 100.857 198.046 100.857 197.318C100.857 196.581 101.021 195.932 101.347 195.372C101.674 194.812 102.117 194.373 102.677 194.056C103.237 193.739 103.877 193.58 104.595 193.58C105.323 193.58 105.967 193.739 106.527 194.056C107.097 194.373 107.54 194.812 107.857 195.372C108.184 195.932 108.347 196.581 108.347 197.318C108.347 198.046 108.184 198.695 107.857 199.264C107.54 199.824 107.097 200.267 106.527 200.594C105.958 200.911 105.314 201.07 104.595 201.07ZM104.595 200.188C105.127 200.188 105.599 200.071 106.009 199.838C106.42 199.595 106.742 199.259 106.975 198.83C107.218 198.391 107.339 197.887 107.339 197.318C107.339 196.739 107.218 196.235 106.975 195.806C106.742 195.377 106.42 195.045 106.009 194.812C105.599 194.569 105.132 194.448 104.609 194.448C104.087 194.448 103.62 194.569 103.209 194.812C102.799 195.045 102.472 195.377 102.229 195.806C101.987 196.235 101.865 196.739 101.865 197.318C101.865 197.887 101.987 198.391 102.229 198.83C102.472 199.259 102.799 199.595 103.209 199.838C103.62 200.071 104.082 200.188 104.595 200.188ZM115.862 201L112.838 197.36L113.664 196.87L117.038 201H115.862ZM110.472 201V193.65H111.466V201H110.472ZM111.158 197.724V196.87H113.524V197.724H111.158ZM113.748 197.43L112.824 197.29L115.75 193.65H116.828L113.748 197.43ZM122.27 201V193.65H123.264V199.488L128.178 193.65H129.06V201H128.066V195.148L123.166 201H122.27ZM135.573 201V193.65H142.181V201H141.187V194.252L141.439 194.518H136.315L136.567 194.252V201H135.573ZM148.031 201.07C147.321 201.07 146.682 200.911 146.113 200.594C145.553 200.267 145.109 199.824 144.783 199.264C144.456 198.695 144.293 198.046 144.293 197.318C144.293 196.581 144.456 195.932 144.783 195.372C145.109 194.812 145.553 194.373 146.113 194.056C146.673 193.739 147.312 193.58 148.031 193.58C148.759 193.58 149.403 193.739 149.963 194.056C150.532 194.373 150.975 194.812 151.293 195.372C151.619 195.932 151.783 196.581 151.783 197.318C151.783 198.046 151.619 198.695 151.293 199.264C150.975 199.824 150.532 200.267 149.963 200.594C149.393 200.911 148.749 201.07 148.031 201.07ZM148.031 200.188C148.563 200.188 149.034 200.071 149.445 199.838C149.855 199.595 150.177 199.259 150.411 198.83C150.653 198.391 150.775 197.887 150.775 197.318C150.775 196.739 150.653 196.235 150.411 195.806C150.177 195.377 149.855 195.045 149.445 194.812C149.034 194.569 148.567 194.448 148.045 194.448C147.522 194.448 147.055 194.569 146.645 194.812C146.234 195.045 145.907 195.377 145.665 195.806C145.422 196.235 145.301 196.739 145.301 197.318C145.301 197.887 145.422 198.391 145.665 198.83C145.907 199.259 146.234 199.595 146.645 199.838C147.055 200.071 147.517 200.188 148.031 200.188ZM158.906 200.524V194.518H155.364L155.28 196.156C155.261 196.651 155.229 197.136 155.182 197.612C155.145 198.088 155.075 198.527 154.972 198.928C154.879 199.32 154.743 199.642 154.566 199.894C154.389 200.137 154.16 200.277 153.88 200.314L152.886 200.132C153.175 200.141 153.413 200.039 153.6 199.824C153.787 199.6 153.931 199.297 154.034 198.914C154.137 198.531 154.211 198.097 154.258 197.612C154.305 197.117 154.342 196.613 154.37 196.1L154.468 193.65H159.9V200.524H158.906ZM152.578 202.778V200.132H161.048V202.778H160.11V201H153.516V202.778H152.578ZM167.549 201V199.376L167.507 199.11V196.394C167.507 195.769 167.33 195.288 166.975 194.952C166.63 194.616 166.112 194.448 165.421 194.448C164.945 194.448 164.493 194.527 164.063 194.686C163.634 194.845 163.27 195.055 162.971 195.316L162.523 194.574C162.897 194.257 163.345 194.014 163.867 193.846C164.39 193.669 164.941 193.58 165.519 193.58C166.471 193.58 167.204 193.818 167.717 194.294C168.24 194.761 168.501 195.475 168.501 196.436V201H167.549ZM165.015 201.07C164.465 201.07 163.984 200.981 163.573 200.804C163.172 200.617 162.864 200.365 162.649 200.048C162.435 199.721 162.327 199.348 162.327 198.928C162.327 198.545 162.416 198.2 162.593 197.892C162.78 197.575 163.079 197.323 163.489 197.136C163.909 196.94 164.469 196.842 165.169 196.842H167.703V197.584H165.197C164.488 197.584 163.993 197.71 163.713 197.962C163.443 198.214 163.307 198.527 163.307 198.9C163.307 199.32 163.471 199.656 163.797 199.908C164.124 200.16 164.581 200.286 165.169 200.286C165.729 200.286 166.21 200.16 166.611 199.908C167.022 199.647 167.321 199.273 167.507 198.788L167.731 199.474C167.545 199.959 167.218 200.347 166.751 200.636C166.294 200.925 165.715 201.07 165.015 201.07ZM174.941 201.07C174.307 201.07 173.733 200.925 173.219 200.636C172.706 200.337 172.295 199.913 171.987 199.362C171.689 198.802 171.539 198.121 171.539 197.318C171.539 196.515 171.689 195.839 171.987 195.288C172.286 194.728 172.692 194.303 173.205 194.014C173.719 193.725 174.297 193.58 174.941 193.58C175.641 193.58 176.267 193.739 176.817 194.056C177.377 194.364 177.816 194.803 178.133 195.372C178.451 195.932 178.609 196.581 178.609 197.318C178.609 198.065 178.451 198.718 178.133 199.278C177.816 199.838 177.377 200.277 176.817 200.594C176.267 200.911 175.641 201.07 174.941 201.07ZM171.147 203.716V193.65H172.099V195.862L172.001 197.332L172.141 198.816V203.716H171.147ZM174.871 200.188C175.394 200.188 175.861 200.071 176.271 199.838C176.682 199.595 177.009 199.259 177.251 198.83C177.494 198.391 177.615 197.887 177.615 197.318C177.615 196.749 177.494 196.249 177.251 195.82C177.009 195.391 176.682 195.055 176.271 194.812C175.861 194.569 175.394 194.448 174.871 194.448C174.349 194.448 173.877 194.569 173.457 194.812C173.047 195.055 172.72 195.391 172.477 195.82C172.244 196.249 172.127 196.749 172.127 197.318C172.127 197.887 172.244 198.391 172.477 198.83C172.72 199.259 173.047 199.595 173.457 199.838C173.877 200.071 174.349 200.188 174.871 200.188ZM186.135 201L183.111 197.36L183.937 196.87L187.311 201H186.135ZM180.745 201V193.65H181.739V201H180.745ZM181.431 197.724V196.87H183.797V197.724H181.431ZM184.021 197.43L183.097 197.29L186.023 193.65H187.101L184.021 197.43ZM191.644 201.07C190.935 201.07 190.295 200.911 189.726 200.594C189.166 200.267 188.723 199.824 188.396 199.264C188.069 198.695 187.906 198.046 187.906 197.318C187.906 196.581 188.069 195.932 188.396 195.372C188.723 194.812 189.166 194.373 189.726 194.056C190.286 193.739 190.925 193.58 191.644 193.58C192.372 193.58 193.016 193.739 193.576 194.056C194.145 194.373 194.589 194.812 194.906 195.372C195.233 195.932 195.396 196.581 195.396 197.318C195.396 198.046 195.233 198.695 194.906 199.264C194.589 199.824 194.145 200.267 193.576 200.594C193.007 200.911 192.363 201.07 191.644 201.07ZM191.644 200.188C192.176 200.188 192.647 200.071 193.058 199.838C193.469 199.595 193.791 199.259 194.024 198.83C194.267 198.391 194.388 197.887 194.388 197.318C194.388 196.739 194.267 196.235 194.024 195.806C193.791 195.377 193.469 195.045 193.058 194.812C192.647 194.569 192.181 194.448 191.658 194.448C191.135 194.448 190.669 194.569 190.258 194.812C189.847 195.045 189.521 195.377 189.278 195.806C189.035 196.235 188.914 196.739 188.914 197.318C188.914 197.887 189.035 198.391 189.278 198.83C189.521 199.259 189.847 199.595 190.258 199.838C190.669 200.071 191.131 200.188 191.644 200.188ZM197.52 201V193.65H200.768C201.599 193.65 202.252 193.809 202.728 194.126C203.214 194.443 203.456 194.91 203.456 195.526C203.456 196.123 203.228 196.585 202.77 196.912C202.313 197.229 201.711 197.388 200.964 197.388L201.16 197.094C202.038 197.094 202.682 197.257 203.092 197.584C203.503 197.911 203.708 198.382 203.708 198.998C203.708 199.633 203.475 200.127 203.008 200.482C202.551 200.827 201.837 201 200.866 201H197.52ZM198.486 200.216H200.824C201.45 200.216 201.921 200.118 202.238 199.922C202.565 199.717 202.728 199.39 202.728 198.942C202.728 198.494 202.584 198.167 202.294 197.962C202.005 197.757 201.548 197.654 200.922 197.654H198.486V200.216ZM198.486 196.912H200.698C201.268 196.912 201.702 196.805 202 196.59C202.308 196.375 202.462 196.063 202.462 195.652C202.462 195.241 202.308 194.933 202 194.728C201.702 194.523 201.268 194.42 200.698 194.42H198.486V196.912Z" fill="black"/>
<defs>
<clipPath id="clip0_547_620">
<rect width="52" height="52" fill="white" transform="translate(109 24)"/>
</clipPath>
</defs>
</svg>
